<?xml version="1.0" standalone="no"?>
<!DOCTYPE svg PUBLIC "-//W3C//DTD SVG 1.1//EN" "http://www.w3.org/Graphics/SVG/1.1/DTD/svg11.dtd" >
<!--
2013-9-30: Created.
-->
<svg>
<metadata>
Created by iconfont
</metadata>
<defs>

<font id="iconfont" horiz-adv-x="1024" >
  <font-face
    font-family="iconfont"
    font-weight="500"
    font-stretch="normal"
    units-per-em="1024"
    ascent="896"
    descent="-128"
  />
    <missing-glyph />
    
    <glyph glyph-name="x" unicode="x" horiz-adv-x="1001"
d="M281 543q-27 -1 -53 -1h-83q-18 0 -36.5 -6t-32.5 -18.5t-23 -32t-9 -45.5v-76h912v41q0 16 -0.5 30t-0.5 18q0 13 -5 29t-17 29.5t-31.5 22.5t-49.5 9h-133v-97h-438v97zM955 310v-52q0 -23 0.5 -52t0.5 -58t-10.5 -47.5t-26 -30t-33 -16t-31.5 -4.5q-14 -1 -29.5 -0.5
t-29.5 0.5h-32l-45 128h-439l-44 -128h-29h-34q-20 0 -45 1q-25 0 -41 9.5t-25.5 23t-13.5 29.5t-4 30v167h911zM163 247q-12 0 -21 -8.5t-9 -21.5t9 -21.5t21 -8.5q13 0 22 8.5t9 21.5t-9 21.5t-22 8.5zM316 123q-8 -26 -14 -48q-5 -19 -10.5 -37t-7.5 -25t-3 -15t1 -14.5
t9.5 -10.5t21.5 -4h37h67h81h80h64h36q23 0 34 12t2 38q-5 13 -9.5 30.5t-9.5 34.5q-5 19 -11 39h-368zM336 498v228q0 11 2.5 23t10 21.5t20.5 15.5t34 6h188q31 0 51.5 -14.5t20.5 -52.5v-227h-327z" />
    

    
    <glyph glyph-name="shezhi" unicode="&#58880;" d="M848.2028 271.362c61.7667 0 111.9928 50.2538 111.9928 111.9928 0 61.7667-50.2262 111.9949-111.9928 111.9949l-19.414016 0c-3.9373 11.1831-8.448 22.1194-13.4779 32.7014l13.6704 13.698c21.0811 21.0801 32.7025 49.2165 32.7025 79.1828 0 29.995-11.6214 58.1028-32.7025 79.1839-21.0801 21.1098-49.2165 32.7035-79.1839 32.7035-29.9704 0-58.1048-11.5937-79.1818-32.7035l-13.6704-13.6714c-10.6107 5.033-21.5214 9.5437-32.7311 13.481l0 19.412992c0 61.7656-50.2292 111.9939-111.9949 111.9939-61.7636 0-111.9928-50.2282-111.9928-111.9939l0-19.412992c-11.2118-3.9373-22.1225-8.448-32.7322-13.481l-13.6714 13.6714c-21.077 21.1098-49.2124 32.7035-79.1828 32.7035-29.9663 0-58.0987-11.5937-79.1839-32.7035-21.076-21.0801-32.7014-49.1889-32.7014-79.1839 0-29.9674 11.6255-58.1028 32.7014-79.1828l13.6714-13.6704c-5.0289-10.6097-9.5406-21.5194-13.4779-32.7291l-19.414016 0c-61.7636 0-111.9928-50.2282-111.9928-111.9949 0-61.739 50.2292-111.9928 111.9928-111.9928l19.414016 0c3.9373-11.2118 8.449-22.1215 13.4779-32.7291l-13.6714-13.6714c-21.076-21.0811-32.7014-49.1909-32.7014-79.1849 0-29.996 11.6255-58.1028 32.7014-79.1828 21.0852-21.078 49.2175-32.7035 79.1839-32.7035 29.9715 0 58.1059 11.6255 79.1828 32.7035l13.6714 13.6704c10.6097-5.0309 21.5204-9.5119 32.7322-13.4789l0-19.416064c0-61.7359 50.2292-111.9928 111.9928-111.9928 61.7656 0 111.9949 50.2569 111.9949 111.9928l0 19.416064c11.2097 3.967 22.1204 8.448 32.7311 13.5045l13.6704-13.695c21.077-21.078 49.2124-32.7035 79.1818-32.7035 29.9674 0 58.1038 11.6255 79.1839 32.7035 21.0811 21.0801 32.7025 49.1868 32.7025 79.1828 0 29.994-11.6214 58.1038-32.7025 79.1849l-13.6704 13.698c5.0299 10.6076 9.5406 21.5194 13.4779 32.7025L848.202752 271.3629zM789.3873 185.3706c10.5277-10.5001 16.297-24.5555 16.297-39.594 0-15.0108-5.7692-29.0673-16.297-39.5909-21.0504-21.0278-58.1294-21.0278-79.1808 0l-43.1186 43.1452-18.4842-10.3629c-18.647-10.4172-38.826-18.7556-60.0177-24.7695l-20.3694-5.7723 0-61.057024c0-30.8675-25.1279-55.9933-55.9985-55.9933s-55.9985 25.1259-55.9985 55.9933l0 61.057024-20.3674 5.7723c-21.2183 6.0416-41.4259 14.3534-60.0156 24.7695l-18.4852 10.3363-43.1206-43.1176c-21.0534-21.0278-58.1294-21.0278-79.1828 0-10.5267 10.5236-16.2939 24.5801-16.2939 39.5909 0 15.0385 5.7672 29.0939 16.2939 39.594l43.1176 43.1165-10.3588 18.4852c-10.3916 18.5907-18.7054 38.7697-24.746 60.0412l-5.7733 20.3448-61.053952 0c-30.8695 0-55.9954 25.1279-55.9954 55.9964 0 30.8705 25.1249 55.9985 55.9954 55.9985l61.053952 0 5.7733 20.3704c6.0406 21.2449 14.3544 41.4505 24.746 60.0156l10.3588 18.4832-43.1176 43.1186c-10.5267 10.5277-16.2939 24.5811-16.2939 39.5919 0 15.0395 5.7672 29.0939 16.2939 39.5919 21.0545 21.0278 58.1304 21.0278 79.1828 0l43.1206-43.1176 18.4852 10.3608c18.5897 10.3905 38.7983 18.731 60.0156 24.746l20.3674 5.7702 0 61.056c0 30.8951 25.1279 55.9964 55.9985 55.9964s55.9985-25.1013 55.9985-55.9964l0-61.056 20.3694-5.7702c21.1917-6.016 41.3706-14.3278 60.0177-24.7716l18.4842-10.3352 43.1186 43.1176c21.0524 21.0278 58.1315 21.0278 79.1808 0 10.5277-10.498 16.297-24.5524 16.297-39.5919 0-15.0108-5.7692-29.0642-16.297-39.5919l-43.0909-43.1186 10.3076-18.4832c10.4479-18.6737 18.7832-38.8813 24.7706-60.0156l5.7733-20.3704 61.053952 0c30.8695 0 55.9974-25.1279 55.9974-55.9985 0-30.8685-25.1279-55.9964-55.9974-55.9964l-61.053952 0-5.7733-20.3448c-5.9884-21.161-14.3227-41.342-24.7706-60.0412l-10.3076-18.4852L789.3873 185.3706zM512.2181 551.3472c-92.6372 0-167.9913-75.3551-167.9913-167.9923 0-92.6351 75.3541-167.9913 167.9913-167.9913s167.9913 75.3562 167.9913 167.9913C680.2094 475.9921 604.8553 551.3472 512.2181 551.3472zM512.2181 271.362c-61.7636 0-111.9928 50.2538-111.9928 111.9928 0 61.7667 50.2292 111.9949 111.9928 111.9949 61.7656 0 111.9949-50.2282 111.9949-111.9949C624.213 321.6159 573.9848 271.362 512.2181 271.362z"  horiz-adv-x="1024" />

    
    <glyph glyph-name="denglu" unicode="&#58888;" d="M852.144032-41.162236 285.2368-41.162236c-62.614579 0-113.380832 50.764174-113.380832 113.37721L171.855968 185.591161l56.690416 0 0-113.376187c0-31.306007 25.38415-56.688093 56.690416-56.688093l566.907232 0c31.307289 0 56.690416 25.38311 56.690416 56.688093l0 623.572098c0 31.306007-25.38415 56.688093-56.690416 56.688093L285.2368 752.475166c-31.307289 0-56.690416-25.382087-56.690416-56.688093l0-113.376187-56.690416 0L171.855968 695.787072c0 62.612013 50.766254 113.37721 113.380832 113.37721l566.907232 0c62.615602 0 113.381856-50.765197 113.381856-113.37721l0-623.572098C965.525888 9.601938 914.759634-41.162236 852.144032-41.162236zM606.752315 560.930665c-11.044996 11.072173-11.044996 29.036313 0 40.079834 11.071603 11.072173 29.03648 11.072173 40.109106 0l195.565921-195.557908c5.896532-5.89629 8.414992-13.729699 8.028166-21.451568 0.386826-7.721869-2.131634-15.556301-8.028166-21.48022L646.862445 166.961872c-11.072627-11.07115-29.037503-11.07115-40.109106 0-11.044996 11.072173-11.044996 29.036313 0 40.080857l148.619825 148.613736L86.818808 355.656465c-15.639829 0-28.34572 12.67774-28.34572 28.344558 0 15.639189 12.70589 28.344558 28.34572 28.344558l668.552308 0L606.752315 560.930665z"  horiz-adv-x="1024" />

    
    <glyph glyph-name="faxian" unicode="&#58915;" d="M511.273453-144.88851c-245.281379 0-444.122053 198.838627-444.122053 444.1241 0 245.277286 198.840674 444.11796 444.122053 444.11796s444.122053-198.840674 444.122053-444.11796C955.395506 53.950118 756.554832-144.88851 511.273453-144.88851zM511.273453 676.857067c-208.555943 0-377.620453-169.071673-377.620453-377.620453 0-208.560036 169.065534-377.624547 377.620453-377.624547 208.553896 0 377.620453 169.065534 377.620453 377.624547C888.893906 507.785394 719.826326 676.857067 511.273453 676.857067zM397.742746 407.927081c52.089355 21.246907 297.199843 121.228015 301.404608 122.966613 10.903328 3.391237 38.749536-20.809955 33.726126-28.568662-3.139503-4.690836-102.942557-252.92343-124.056434-305.47225l-1.967818-4.89959-4.990664-1.973958c-52.31039-20.688181-297.519114-117.732401-302.20688-120.870882-7.754614-5.021364-35.18536 19.59836-31.791054 30.501688 1.741667 4.200672 101.719706 249.313206 122.966613 301.402561l2.003634 4.91187L397.742746 407.927081zM664.240333 462.370041c-3.950985-1.638313-165.388794-75.019601-217.203904-98.578156l0 0c0 0-115.579365-222.856647-117.52467-227.555669-3.393283-10.907421-4.01443-7.480368 3.742231-2.459005 5.246491 3.51301 236.412384 107.382683 236.412384 107.382683l1.845021 3.515057c23.986297 50.901297 92.236727 209.546503 95.182826 213.948767C671.718655 466.378331 675.143661 465.760255 664.240333 462.370041zM478.064097 272.185514c-15.646352 15.644305-15.646352 41.011043 0 56.655348 15.646352 15.646352 41.011043 15.646352 56.655348 0 15.646352-15.644305 15.646352-41.011043 0-56.655348C519.075139 256.544279 493.710448 256.544279 478.064097 272.185514z"  horiz-adv-x="1024" />

    
    <glyph glyph-name="iconli" unicode="&#58883;" d="M264.117376-50.943884 264.117376 241.258131c-41.252543-29.810956-91.689259-58.439994-151.257959-85.941348l0 68.753897c114.571409 75.628468 195.946764 170.7018 244.074901 285.326421l-220.010833 0 0 72.191182 326.578963 0 0-72.191182c-20.62576-55.002708-45.871747-103.129822-75.628468-144.382365 27.501354-43.561122 66.444295-83.684958 116.879987-120.318296l0-68.753897c-55.002708 27.501354-100.873432 56.131415-137.50677 85.941348l0-312.827775L264.117376-50.943884zM274.430256 602.21302c-4.619204 41.252543-17.188474 85.941348-37.814234 134.069485l92.816942 0c22.88215-43.561122 37.814234-88.25095 44.689828-134.069485L274.430256 602.21302zM662.886499-26.880839c-71.061452 0-106.568131 33.248242-106.568131 99.692536L556.318368 729.40691l113.442702 0 0-639.406738c0-32.120558 14.879895-48.127114 44.689828-48.127114l58.439994 0c32.06837-2.309602 46.946218 11.441587 44.689828 41.252543L817.58072 127.814406l85.941348 0 0-61.878303c2.25639-64.134693-33.247218-95.073332-106.568131-92.816942L662.886499-26.880839z"  horiz-adv-x="1024" />

    
    <glyph glyph-name="yuedu" unicode="&#59068;" d="M913.915789 670.128829c-13.821797 1.571798-121.394814 13.449313-214.443024 13.449313-80.630389 0-134.685515-16.854876-154.626683-27.131941-5.931083-2.708692-21.287839-10.330276-35.063587-22.239514-13.775748 11.909238-29.132504 19.529799-35.062564 22.239514-19.941168 10.277064-73.996295 27.131941-154.626683 27.131941-93.048209 0-200.621227-11.877515-214.443024-13.449313-38.872333-0.864694-70.229504-32.755008-70.229504-71.829955l0-581.699432c0-39.225373 31.595602-71.209832 70.674643-71.838142 0.314155-0.011256 0.63138-0.017396 0.950651-0.017396 1.193175 0 2.420119 0.076748 3.673669 0.236384 10.377348 1.324158 65.233724 8.144494 126.227889 12.385075 107.365286 7.462972 148.305721 1.104147 163.153894-3.348258 0.061398-0.01842 0.122797-0.032746 0.185218-0.050142 0.26913-0.077771 0.540306-0.152473 0.813528-0.222057 0.181125-0.047072 0.36225-0.091074 0.543376-0.134053 0.207731-0.048095 0.417509-0.094144 0.627287-0.137123 0.249687-0.052189 0.499373-0.100284 0.74906-0.144286 0.075725-0.013303 0.150426-0.030699 0.227174-0.044002 7.018857-1.169639 17.506722-4.626367 28.609595-8.287757 22.461571-7.40362 50.41625-16.619516 77.926814-16.619516 23.168676 0 48.756447 7.333012 73.501014 14.424524 17.388019 4.982478 35.367509 10.134825 45.202505 10.134825 3.206018 0 6.271844 0.595564 9.099239 1.672082 123.878378 17.413602 268.536013-9.147334 269.997294-9.420557l2.336208-0.437975 2.37714 0c39.617299 0 71.848375 32.231075 71.848375 71.848375L984.145293 598.29785C984.14427 637.373821 952.787098 669.264135 913.915789 670.128829zM413.33077 3.439724c-72.138994 20.561291-264.597307-2.078335-307.348993-7.483438-10.80816 0.666172-19.396769 9.670244-19.396769 20.643156L86.585007 598.29785c0 11.404748 9.278317 20.683065 20.683065 20.683065l1.480724 0 1.469468 0.170892c1.143033 0.13303 115.374704 13.260002 209.873961 13.260002 70.335928 0 116.656907-14.087856 131.47438-21.597901l0.474814-0.270153 0.967024-0.432859c13.944594-6.324032 29.185716-17.818831 31.191396-23.467481l0-599.936795c0-1.326205 0.101307-2.628874 0.295735-3.900843-12.317537 2.783393-24.924669 6.928806-36.620036 10.784624C435.508885-2.332746 423.809425 1.505675 413.33077 3.439724zM932.97896 16.599442c0-10.780531-8.292873-19.661805-18.832927-20.6012-22.468734 3.988848-164.102499 27.434839-289.4923 8.433066-0.980327-0.148379-1.936095-0.356111-2.871397-0.608867-15.594163-1.234107-33.635051-6.401804-52.594869-11.835559-11.090593-3.177366-22.981411-6.579859-34.098609-9.024537 0.179079 1.222851 0.275269 2.472308 0.275269 3.744277L535.364127 586.643416c2.006703 5.64865 17.246803 17.142425 31.137161 23.442922l0.613984 0.2415 0.864694 0.476861c14.800078 7.509021 61.131289 21.60711 131.4928 21.60711 94.501304 0 208.731952-13.127995 209.873961-13.260002l1.471514-0.170892 1.478677 0c11.404748 0 20.683065-9.278317 20.683065-20.683065L932.979984 16.599442zM147.543358 395.767134c27.567869 6.882757 78.869279 19.690458 165.621085 19.703761 45.88812-0.541329 74.668607-7.16826 106.141412-24.432459 3.903913-2.14178 8.121981-3.157923 12.280698-3.157923 9.03784 0 17.799388 4.800329 22.452361 13.283538 6.794753 12.387122 2.261507 27.938306-10.125615 34.734082-39.179324 21.491477-75.715449 30.109762-130.312928 30.737048l-0.293689 0.001023c-93.128027 0-148.44182-13.809517-178.157609-21.228487-13.70821-3.421936-22.046109-17.309224-18.624173-31.017434C119.947859 400.683097 133.834124 392.342128 147.543358 395.767134zM445.137173 226.781418c-2.833535 1.269923-70.109778 31.101345-131.829468 31.101345-91.033319 0-125.567857-9.402137-158.964478-18.494213-5.15951-1.403976-10.031471-2.731204-15.173584-4.040013-13.690814-3.488451-21.963221-17.415648-18.47477-31.106462 3.487428-13.691837 17.413602-21.965268 31.106462-18.475793 5.54632 1.413186 10.851139 2.858094 15.981996 4.253884 31.540344 8.587586 61.331857 16.697287 145.524374 16.697287 50.633191 0 110.327758-26.369577 110.905926-26.627451 3.3984-1.521656 6.950296-2.243087 10.446933-2.242064 9.772574 0 19.105127 5.631254 23.360034 15.126512C463.799208 205.868109 458.030831 221.004855 445.137173 226.781418zM881.733832 451.397129c-69.244061 13.772678-119.580492 22.49841-184.523597 18.271132-70.992891-0.212848-119.901811-26.582425-121.956609-27.709085-12.388145-6.792707-16.925485-22.342868-10.131755-34.732036 4.652973-8.486278 13.413498-13.287631 22.454408-13.287631 4.15667 0 8.374738 1.016143 12.276604 3.155876 0.390903 0.213871 40.653909 21.408589 98.216929 21.408589l0.851391 0 0.850367 0.056282c59.066257 3.941775 106.445334-4.310166 171.97991-17.346063 13.857613-2.758834 27.325345 6.242168 30.081109 20.100804C904.5904 435.172609 895.591445 448.640342 881.733832 451.397129z"  horiz-adv-x="1024" />

    
    <glyph glyph-name="moreunfold" unicode="&#59047;" d="M478.31207 251.840919C502.692194 224.938714 542.819471 225.301807 566.819471 252.730379L837.388303 561.951902C845.146852 570.818816 844.248346 584.296418 835.381431 592.05497 826.514517 599.813519 813.036915 598.915012 805.278364 590.048098L534.709532 280.826577C527.507586 272.59578 517.168621 272.502227 509.927514 280.492414L229.141056 590.325747C221.229163 599.056111 207.737949 599.719614 199.007586 591.807723 190.277222 583.895829 189.61372 570.404617 197.525612 561.674253L478.31207 251.840919Z"  horiz-adv-x="1024" />

    
    <glyph glyph-name="wo" unicode="&#58895;" d="M664.86148 230.901249c73.007781 51.572586 120.688733 136.614447 120.688733 232.797044 0 157.316955-127.523395 284.839327-284.833187 284.839327-157.308769 0-284.83114-127.523395-284.83114-284.839327 0-99.532901 51.066049-187.126888 128.415718-238.054791-144.495952-63.027475-246.36506-205.535143-250.359025-372.294145l40.700981 0c4.297886 161.873738 110.796432 298.273291 257.32774 347.032808 33.510208-13.855566 70.231551-21.517059 108.74675-21.517059 41.827641 0 81.548294 9.017374 117.327172 25.212218 152.564721-45.228087 264.680195-184.55225 269.092691-350.726943l40.705074 0C923.731342 24.920968 816.014038 170.822942 664.86148 230.901249zM500.717026 219.565063c-134.832871 0-244.141416 109.304452-244.141416 244.13323 0 134.839011 109.308545 244.13937 244.141416 244.13937 134.834918 0 244.145509-109.300358 244.145509-244.13937C744.862535 328.868491 635.551944 219.565063 500.717026 219.565063z"  horiz-adv-x="1024" />

    
    <glyph glyph-name="wode" unicode="&#58889;" d="M512 772.641784c-260.927454 0-472.450321-211.522867-472.450321-472.453934S251.072546-172.262471 512-172.262471s472.450321 211.522867 472.450321 472.450321S772.927454 772.641784 512 772.641784zM512-129.429027c-237.269174 0-429.613265 192.344091-429.613265 429.613265 0 237.272786 192.344091 429.616877 429.613265 429.616877s429.62049-192.344091 429.62049-429.616877C941.62049 62.918676 749.269174-129.429027 512-129.429027zM792.39523-50.470557c-0.090313 0.924801-0.191463 1.845989-0.292613 2.767177-0.0289 1.997714-0.2601 3.937628-0.67915 5.816129-13.098935 102.988838-80.414309 189.045876-172.450039 228.64613 53.183264 36.439314 88.087265 97.613434 88.087265 166.944585 0 111.694969-90.554604 202.242348-202.235123 202.242348-111.694969 0-202.245961-90.547379-202.245961-202.242348 0-69.356438 34.929288-130.555846 88.141452-166.984322-91.027842-39.210104-157.862753-123.883553-171.929838-225.416553-1.029563-2.962252-1.593114-6.134029-1.593114-9.446694l0.209525-2.207239c0-0.039738-0.003613-0.075863-0.007225-0.1156l0.021675 0 0.032513-0.3468c0-15.927524 12.911084-28.834996 28.831384-28.834996 15.927524 0 28.834996 12.907472 28.834996 28.834996l-0.0289 0.3468 0.523813 0c13.43851 110.127143 104.394101 196.310619 216.638171 202.339886 4.157991-0.256488 8.352106-0.397375 12.575122-0.397375 4.226628 0 8.420744 0.140888 12.578734 0.400988 112.27297-6.025654 203.239399-92.205518 216.670684-202.343498l0.585225 0 0.032513-0.3468c0-15.927524 12.914697-28.834996 28.834996-28.834996s28.834996 12.907472 28.834996 28.834996l-0.032513 0.3468L792.39523-50.466944 792.39523-50.470557zM504.771382 209.192521c-79.778508 0-144.449531 64.674635-144.449531 144.449531 0 79.778508 64.66741 144.456756 144.449531 144.456756s144.449531-64.678247 144.449531-144.456756C649.220913 273.867156 584.549891 209.192521 504.771382 209.192521L504.771382 209.192521zM504.771382 209.192521"  horiz-adv-x="1024" />

    
    <glyph glyph-name="icon043" unicode="&#58933;" d="M863.063-39.971h-702.125c-52.748 0-95.665 42.903-95.665 95.65l0 464.584c0 52.776 42.916 95.707 95.665 95.707h702.125c52.748 0 95.665-42.931 95.665-95.707v-464.583c0-52.748-42.917-95.651-95.665-95.651zM160.937 579.547c-32.677 0-59.269-26.578-59.269-59.283v-464.583c0-32.677 26.593-59.227 59.269-59.227h702.125c32.677 0 59.269 26.551 59.269 59.227v464.583c0 32.705-26.593 59.283-59.269 59.283h-702.125zM954.53 319.008h-885.060v157.067h885.060l0-157.067zM97.471 347.009h829.058v101.066h-829.058v-101.066zM584.341 86.033h-309.46c-10.047 0-18.197 8.149-18.197 18.212s8.151 18.212 18.197 18.212h309.459c10.049 0 18.197-8.149 18.197-18.212s-8.148-18.212-18.196-18.212zM850.348 86.033h-183.456c-10.047 0-18.197 8.149-18.197 18.212s8.151 18.212 18.197 18.212h183.456c10.049 0 18.197-8.149 18.197-18.212s-8.149-18.212-18.197-18.212z"  horiz-adv-x="1024" />

    
    <glyph glyph-name="sousuo" unicode="&#58890;" d="M661.009755 246.821847M1668.10576 205.163051M451.331245 746.104197c-212.771965 0-385.205199-178.831968-385.205199-399.503856 0-220.644259 172.433234-399.50795 385.205199-399.50795 212.765825 0 385.199059 178.830945 385.199059 399.50795C836.529281 567.240507 664.09707 746.104197 451.331245 746.104197L451.331245 746.104197 451.331245 746.104197zM671.556972 118.188164c-58.761312-60.927651-136.950092-94.485955-220.225727-94.485955-83.281775 0-161.502277 33.558303-220.231867 94.485955-58.761312 60.928674-91.116207 142.03797-91.116207 228.4132 0 86.370113 32.354895 167.484525 91.116207 228.411153 58.761312 60.928674 136.987954 94.486978 220.231867 94.486978 83.238796 0 161.464415-33.558303 220.225727-94.486978 58.761312-60.927651 91.117231-142.042063 91.117231-228.411153C762.674203 260.262974 730.318284 179.116839 671.556972 118.188164L671.556972 118.188164 671.556972 118.188164zM914.925792-80.755864l-87.333044 90.598414c-13.447267 16.265452-38.061874 16.265452-53.744042 0-15.677051-13.924127-15.677051-39.470967 0-55.736419l87.335091-90.598414c13.446243-13.927197 38.065967-13.927197 53.743018 0C930.603867-122.568155 930.603867-96.98857 914.925792-80.755864L914.925792-80.755864 914.925792-80.755864zM914.925792-80.755864"  horiz-adv-x="1669" />

    
    <glyph glyph-name="xiaobanke" unicode="&#58899;" d="M536.474 196.556c-13.271 3.189-24.020 13.654-28.062 27.357-4.383 14.983-0.099 30.779 11.367 42.86 49.428 47.431 81.344 128.022 81.344 205.326 0 118.886-73.491 201.945-178.677 201.945-105.187 0-178.643-83.057-178.643-201.945 0-76.115 30.976-155.517 78.975-203.087 0.332-0.476 0.713-0.906 1.141-1.333 12.228-12.655 16.654-28.637 12.179-43.819-4.086-13.796-14.981-24.309-27.83-27.306-151.279-29.254-274.397-114.931-274.397-191.003 0-95.479 186.766-108.657 388.575-108.657s388.573 13.178 388.573 108.657c0.001 76.308-123.498 162.036-274.544 191.005zM422.445-72.419c-88.534 0-357.839 0-357.839 77.97 0 53.281 102.422 132.446 250.038 160.987 24.169 5.615 43.674 24.263 50.862 48.622 7.367 24.877 0.75 51.613-17.754 71.977-0.571 0.759-1.235 1.518-1.947 2.235-43.296 41.914-71.361 113.606-71.361 182.729 0 100.854 60.89 171.263 147.999 171.263 87.147 0 148.004-70.407 148.004-171.263 0-69.359-28.219-141.294-72.412-183.678-19.404-20.41-26.545-47.761-19.025-73.166 7.081-24.171 26.351-42.771 50.949-48.717 147.566-28.256 250.321-107.516 250.321-160.987 0-77.97-269.351-77.97-357.838-77.97zM715.578 201.613c-13.271 3.193-24.020 13.659-28.064 27.36-4.382 14.987-0.092 30.775 11.376 42.861 49.426 47.431 81.344 128.017 81.344 205.323 0 118.886-73.498 201.95-178.679 201.95-21.519 0-41.698-3.481-60.199-10.026 8.338-7.893 16.542-16.198 24.542-24.871 11.282 2.765 23.196 4.209 35.658 4.209 87.147 0 147.998-70.407 147.998-171.262 0-69.36-28.21-141.292-72.403-183.679-19.413-20.406-26.546-47.761-19.031-73.165 7.085-24.169 26.356-42.768 50.947-48.714 147.574-28.257 250.33-107.517 250.33-160.991 0-2.855-0.387-5.599-1.088-8.246h31.308c0.319 2.681 0.516 5.423 0.516 8.246-0.001 76.308-123.501 162.038-274.551 191.005z"  horiz-adv-x="1024" />

    
    <glyph glyph-name="lv" unicode="&#58881;" d="M132.612297-83.241474c253.523087 0.002047 507.046175 0.020466 760.568239-0.11154 4.786003-0.002047 5.873778 1.081635 5.871731 5.869684-0.13303 253.523087-0.115634 507.046175-0.113587 760.568239 0.294712-0.208754 0.997724 0.484024 0.967024-0.478907-0.040932-1.274016-0.010233-2.551102-0.010233-3.826142 0-252.890684-0.00921-505.782392 0.089028-758.673076 0.001023-3.586688-0.807389-4.396123-4.394077-4.394077-252.890684 0.098237-505.782392 0.086981-758.673076 0.148379C135.517463-84.138914 133.673465-85.242038 132.612297-83.241474zM899.380748 677.918235c0 1.721201 0.435928 3.50994-0.442068 5.167696-253.928317 0-507.85561-0.011256-761.783926 0.105401-3.877307 0.002047-4.650927-0.769526-4.64888-4.64888 0.11768-253.928317 0.106424-507.856633 0.106424-761.783926 1.655709-0.87595 3.441379-0.442068 5.160533-0.442068 251.918543-0.022513 503.837086-0.022513 755.75563-0.013303 6.578836 0 5.866614-0.703011 5.866614 5.860475C899.404284 174.081149 899.403261 425.999692 899.380748 677.918235zM835.280848-24.96828c-106.665345 0.12996-213.33069 0.102331-319.996035 0.102331-106.34505 0-212.691123 0.029676-319.036173-0.104377-4.349051-0.005117-5.371334 1.075495-5.368264 5.38873 0.11461 213.011418 0.115634 426.02386-0.00307 639.035278-0.002047 4.348028 1.073448 5.368264 5.384637 5.365194 213.011418-0.11461 426.02386-0.11461 639.035278 0.002047 4.338818 0.002047 5.374404-1.059122 5.372358-5.381567-0.115634-213.011418-0.115634-426.02386 0.002047-639.035278C840.673671-23.945997 839.59613-24.973396 835.280848-24.96828zM300.057937 276.460888c0 63.609737 0.065492 127.219473-0.12996 190.828186-0.014326 4.808516 1.360997 5.618974 5.765307 5.520737 13.703093-0.304945 27.42256-0.308015 41.125653 0.005117 4.26207 0.097214 4.78805-1.39272 4.777817-5.120624-0.124843-46.231951-0.081864-92.464925-0.081864-138.697899 0-64.406892 0.072655-128.813784-0.140193-193.219653-0.016373-5.0449 1.463328-5.776563 6.010901-5.761214 48.941666 0.167822 97.885378 0.060375 146.827043 0.193405 3.717671 0.010233 4.731768-0.889253 4.66423-4.643764-0.243547-13.546527-0.240477-27.102265 0-40.649815 0.065492-3.679809-1.019213-4.438079-4.532223-4.423753-33.95637 0.138146-67.913762 0.104377-101.871155 0.076748-32.519648-0.026606-65.040319-0.033769-97.558943-0.254803-3.870144-0.026606-4.992711 0.75213-4.982478 4.842285 0.149403 63.767326 0.104377 127.535675 0.104377 191.304024C300.04361 276.460888 300.050774 276.460888 300.057937 276.460888zM777.677918 360.96142c-11.239995-26.263154-22.157649-51.797713-33.094746-77.323063-28.27395-65.9879-56.595996-131.954311-84.736916-197.999516-1.696642-3.982708-3.65525-5.418406-7.983835-5.178953-7.468089 0.413416-14.987343 0.350994-22.463618 0.01535-3.76986-0.168846-5.514597 0.977257-6.895037 4.561899-27.735691 72.03257-55.610552 144.011928-83.464947 215.999472-7.106862 18.367323-14.254655 36.719296-21.341051 55.094806-0.552585 1.432629-1.601474 2.772136-1.189082 4.828982 13.173021 0 26.38288-0.083911 39.58967 0.063445 3.043313 0.033769 3.201925-2.187829 3.900843-3.950985 13.176091-33.218566 26.290783-66.460668 39.433104-99.692536 13.317307-33.673937 26.647917-67.341734 39.97955-101.009532 0.403183-1.017166 0.88209-2.003634 1.595334-3.615341 7.28594 16.228613 14.344706 31.911804 21.369703 47.610344 23.357987 52.195779 46.726208 104.387465 69.988004 156.626223 1.25969 2.829442 2.542916 4.123924 5.884011 4.063549C751.145635 360.823274 764.04748 360.96142 777.677918 360.96142z"  horiz-adv-x="1024" />

    
    <glyph glyph-name="zuoci" unicode="&#58882;" d="M290.304 564.736l206.176 0c8.832 0 16 7.168 16 16s-7.168 16-16 16L290.304 596.736c-8.832 0-16-7.168-16-16S281.472 564.736 290.304 564.736zM290.304 466.016 645.12 466.016c8.832 0 16 7.168 16 16s-7.168 16-16 16L290.304 498.016c-8.832 0-16-7.168-16-16S281.472 466.016 290.304 466.016zM898.4 543.136l-73.216 55.776c-1.888 1.44-4.16 2.24-6.336 3.104L818.848 670.944c0 55.552-30.848 83.744-91.712 83.744l-524.8 0c-71.744 0-86.816-45.664-86.816-83.968l0-742.528c0-31.072 12.608-49.824 23.2-60.032 22.144-21.408 51.744-22.816 58.624-22.816 0.608 0 1.056 0 1.28 0.032l361.952 0 48.032 0 10.752 0c59.04 0 106.688 17.76 141.664 52.736 57.152 57.216 57.792 139.36 57.792 143.04l0 0L818.816 396.48l84.384 110.784C911.808 518.528 909.632 534.592 898.4 543.136zM670.272-96.928c14.752 35.744 12.992 68.416 12.064 85.408-0.064 1.312-0.128 2.496-0.192 3.552 9.504 8.32 44.16 16.96 82.624 21.216C758.272-21.728 737.376-77.92 670.272-96.928zM767.648 65.12c-52.928-4.512-122.112-17.92-135.072-57.376-2.208-6.656-1.856-13.12-1.376-22.016 1.056-19.744 2.592-55.168-23.968-89.184L198.048-103.456c-4.224 0.224-16.64 1.408-23.904 8.608-4.992 4.928-7.424 12.48-7.424 23.04L166.72 670.688c0 24.192 5.376 32.768 35.616 32.768l524.8 0c38.784 0 40.512-10.56 40.512-32.544l0-105.28-126.72-166.336L290.304 399.296c-8.832 0-16-7.168-16-16s7.168-16 16-16l335.84 0c-5.344-20.096-8.48-45.28-10.272-66.72L290.304 300.576c-8.832 0-16-7.168-16-16s7.168-16 16-16l327.04 0c1.664-3.36 3.904-6.464 6.944-8.832 4.576-3.552 10.112-5.408 15.744-5.408 2.592 0 5.184 0.384 7.68 1.184 25.216 7.936 85.792 28.928 103.744 52.512l16.192 21.248L767.648 65.12zM671.52 376.672l53.28-35.936L656.128 300 671.52 376.672zM746.624 364.16l-54.208 40.416 122.912 157.696 51.008-38.496L746.624 364.16z"  horiz-adv-x="1024" />

    
    <glyph glyph-name="tuichu" unicode="&#58986;" d="M952.532295 316.730033 767.686357 501.576995c-9.060353 9.060353-23.75196 9.060353-32.81743 0l-37.363979-37.362956c-9.060353-9.060353-9.060353-23.757077 0-32.81743l81.538061-81.538061L407.384337 349.858548c-12.812817 0-23.199375-10.386558-23.199375-23.199375l0-52.845579c0-12.815887 10.386558-23.204491 23.199375-23.204491l371.479593 0-81.538061-81.538061c-9.060353-9.060353-9.060353-23.757077 0-32.81743l37.368072-37.363979c9.060353-9.05933 23.75503-9.05933 32.815383 0l147.653875 147.653875c0 0.005117 0.005117 0.005117 0.005117 0.005117l37.368072 37.368072C961.592648 292.979096 961.592648 307.66968 952.532295 316.730033L952.532295 316.730033zM634.083499 747.245184l-499.803213 0c-38.441521 0-69.608358-31.166837-69.608358-69.608358l0-754.806002c0-38.446637 31.166837-69.608358 69.608358-69.608358l499.803213 0c38.441521 0 69.608358 31.16172 69.608358 69.608358l0 97.937566c0 12.811794-10.386558 23.204491-23.204491 23.204491l-50.29243 0c-12.812817 0-23.205515-10.392698-23.205515-23.204491l0-37.257555c0-34.328853 0-34.328853-34.791387-34.328853L195.199751-50.818017c-34.801621 0-34.801621-0.00614-34.801621 34.806737L160.39813 617.287343c0 34.900881-0.074701 34.802644 34.801621 34.802644l376.99726 0c34.798551 0 34.791387-0.285502 34.791387-34.329876l0-38.353516c0-12.815887 10.392698-23.204491 23.205515-23.204491l50.29243 0c12.817933 0 23.204491 10.388605 23.204491 23.204491L703.690834 677.636826C703.691857 716.078347 672.52502 747.245184 634.083499 747.245184L634.083499 747.245184zM634.083499 747.245184"  horiz-adv-x="1024" />

    
    <glyph glyph-name="zhuanzhang" unicode="&#58891;" d="M537.276175 401.115819 726.177476 606.477001 659.662573 606.477001 513.331833 445.875233 359.019305 606.477001 297.821501 606.477001 484.063229 401.115819 484.063229 385.319042 329.752748 385.319042 329.752748 348.458529 484.063229 348.458529 484.063229 161.524023 537.276175 161.524023 537.276175 348.458529 683.611008 348.458529 683.611008 385.319042 537.276175 385.319042ZM605.703637 821.256692 605.703637 821.256692M581.713246 780.093177M605.703637 821.256692M958.737112 368.717945c0.074701 1.644453 0.37453 3.310396 0.422625 4.954849l-1.644453-0.224104c-3.957125 8.531304-12.515035 14.553461-22.515806 14.553461-12.43931 0-22.295795-9.279341-24.160259-21.249977l-1.792832-0.297782C897.801275 156.720623 724.620004-10.111033 512.000512-10.111033c-173.602873 0-320.856635 111.347994-375.299595 266.284739l-0.37453-0.048095c-2.358721 17.790178-17.415648 31.575136-35.851533 31.575136-20.081361 0-36.354999-16.273638-36.354999-36.352953 0-2.712785 0.373507-5.39794 0.944512-7.960299-0.320295-1.591241-0.944512-3.038196-0.944512-4.677533l0-149.294235c0-13.758352 11.147898-24.880667 24.880667-24.880667 13.737886 0 24.885783 11.122315 24.885783 24.880667l0 93.831039c74.320683-144.344502 224.587058-243.12425 398.11523-243.12425 235.388055 0 427.376671 181.860954 445.440072 412.619572 1.49505 3.187599 2.439562 6.64842 2.439562 10.379395C959.879122 365.108744 959.20681 366.855528 958.737112 368.717945L958.737112 368.717945zM958.737112 368.717945M99.641883 426.491767c10.774391 0 19.706831 7.020904 23.038716 16.648169l0.549515-0.122797C150.129764 636.775051 315.968813 786.11738 517.117043 786.11738c164.697039 0 305.60221-100.200096 366.169657-242.798838l1.067308 0.422625c5.676279-7.763824 14.356986-13.160741 24.710798-13.160741 17.142425 0 31.051203 13.908778 31.051203 31.05325 0 1.488911-0.624217 2.733251-0.849344 4.1536l0.849344 0.346901L940.116009 711.471286c0 13.758352-11.147898 24.885783-24.885783 24.885783-13.732769 0-24.880667-11.127432-24.880667-24.885783l0-76.734662C810.305525 755.860263 673.200914 835.882807 517.117043 835.882807c-224.912469 0-410.261874-166.037571-442.156282-382.063649l0.521886-0.102331c-0.101307-0.868787-0.521886-1.616824-0.521886-2.535753C74.959737 437.544497 86.006328 426.491767 99.641883 426.491767L99.641883 426.491767zM99.641883 426.491767"  horiz-adv-x="1024" />

    
    <glyph glyph-name="wxbzhuye" unicode="&#58912;" d="M965.963701 409.25315 526.971481 848.160435 89.258395 410.467815c-8.363482-8.383948-8.363482-21.966291 0-30.349215 8.42488-8.385994 21.98778-8.385994 30.349215 0l76.296687 76.252685L195.904297 18.678664c0-30.099529 24.460088-54.580083 54.559617-54.580083l559.219441 0c30.099529 0 54.580083 24.480554 54.580083 54.580083L864.263437 450.208934l71.351048-71.307046c4.15053-4.234441 9.641591-6.246261 15.174608-6.246261 5.449106 0 10.982122 2.012843 15.175631 6.246261C974.347648 387.243881 974.347648 400.868179 965.963701 409.25315M821.337789 18.678664c0-6.415107-5.240351-11.654434-11.655458-11.654434L250.463913 7.02423c-6.415107 0-11.632945 5.239328-11.632945 11.654434L238.830969 499.296933l288.140513 288.204981L821.337789 493.134583 821.337789 18.678664 821.337789 18.678664zM406.408615 440.166207c0-66.821895 54.328349-121.193223 121.193223-121.193223 66.862827 0 121.1922 54.371328 121.1922 121.193223 0 66.819848-54.329373 121.149221-121.1922 121.149221C460.736964 561.314405 406.408615 506.986055 406.408615 440.166207M527.600815 518.38978c43.134403 0 78.263481-35.130102 78.263481-78.223572 0-43.179428-35.129078-78.265528-78.263481-78.265528-43.136449 0-78.266551 35.087123-78.266551 78.265528C449.334263 483.259678 484.464365 518.38978 527.600815 518.38978"  horiz-adv-x="1024" />

    
    <glyph glyph-name="wxbsousuotuiguang" unicode="&#58913;" d="M937.798221 126.144234 714.895525 349.130841c23.821545 45.681412 37.589107 97.495498 37.589107 152.564721 0 182.559872-148.560524 331.078441-331.079464 331.078441-182.623317 0-331.098907-148.517545-331.098907-331.078441 0-182.559872 148.47559-331.078441 331.098907-331.078441 60.575634 0 117.27089 16.647145 166.206416 45.221948L807.552831-4.100132c17.938558-17.939581 41.551348-26.867928 65.12423-26.867928s47.182602 8.928347 65.123206 26.867928c17.396205 17.396205 27.033703 40.550555 27.033703 65.164139C964.831924 85.678614 955.194426 108.83194 937.798221 126.144234M133.027248 501.695562c0 158.989037 129.34795 288.358477 288.378943 288.358477 158.948105 0 288.3595-129.36944 288.3595-288.358477 0-99.206466-50.437739-186.899714-126.950344-238.795665-1.044796-0.416486-1.876744-1.252527-2.877537-1.835811-45.515636-30.03813-99.999528-47.727001-158.530596-47.727001C262.375198 213.337085 133.027248 342.663546 133.027248 501.695562M907.594315 26.103774c-19.273972-19.191084-50.562583-19.191084-69.836555 0L623.6995 240.202966c26.157753 20.274766 49.186236 44.305065 68.292386 71.421656l215.601406-215.683271c9.344832-9.262968 14.518668-21.694091 14.518668-34.877345S916.939147 35.448606 907.594315 26.103774M215.169059 508.20993c0 0 42.156122 211.011878 234.186693 224.946238C449.355753 733.156168 185.944458 764.444778 215.169059 508.20993"  horiz-adv-x="1024" />

    
    <glyph glyph-name="xiangji" unicode="&#58941;" d="M585.142857 530.285714c-120.685714 0-219.428571-98.742857-219.428571-219.428571s98.742857-219.428571 219.428571-219.428571 219.428571 98.742857 219.428571 219.428571S705.828571 530.285714 585.142857 530.285714zM1024 749.714286l-109.714286 0-36.571429 73.142857c-21.942857 43.885714-32.914286 73.142857-73.142857 73.142857L365.714286 896C325.485714 896 310.857143 859.428571 292.571429 822.857143L256 749.714286 146.285714 749.714286C65.828571 749.714286 0 683.885714 0 603.428571l0-585.142857c0-80.457143 65.828571-146.285714 146.285714-146.285714l877.714286 0c80.457143 0 146.285714 65.828571 146.285714 146.285714L1170.285714 603.428571C1170.285714 683.885714 1104.457143 749.714286 1024 749.714286zM585.142857 18.285714c-160.914286 0-292.571429 131.657143-292.571429 292.571429s131.657143 292.571429 292.571429 292.571429 292.571429-131.657143 292.571429-292.571429S746.057143 18.285714 585.142857 18.285714z"  horiz-adv-x="1171" />

    
    <glyph glyph-name="huodong" unicode="&#58935;" d="M872.302531 665.094026l-31.385824 0c15.913435 26.987654 22.898523 52.728922 20.664645 76.603679-1.851161 19.97903-11.320836 48.560996-46.025243 71.339792-28.77537 18.930141-65.776076 23.567765-106.827027 13.314237-66.570161-16.712637-145.351436-74.172303-197.158359-143.615908C459.740264 752.173291 381.015272 809.639097 314.44511 826.351734c-41.084721 10.321066-78.113055 5.64865-106.883309-13.314237-34.676777-22.778796-44.146453-51.359738-45.99659-71.339792-2.233877-23.874757 4.689812-49.616024 20.664645-76.603679l-31.385824 0c-47.521317 0-86.201268-38.703487-86.201268-86.263689l0-111.116727c0-37.622876 24.818245-70.869071 60.714803-82.037435-3.409656-9.44-5.197372-19.203364-5.197372-29.090549l0-333.358367c0-47.527456 38.71986-86.25141 86.252433-86.25141l610.417497 0c47.526433 0 86.183871 38.718837 86.183871 86.25141L903.013997 356.585627c0 9.950629-1.719154 19.745716-5.128811 29.124318 35.846416 11.229762 60.601216 44.476981 60.601216 82.008782L958.486402 578.800661C958.486402 626.357793 919.829987 665.094026 872.302531 665.094026M816.831148-1.590985 542.261723-1.590985l0 383.02351 274.568403 0c13.684674 0 24.783453-11.166317 24.783453-24.847921l0-333.358367C841.613578 9.543609 830.515822-1.590985 816.831148-1.590985M576.069713 665.094026C619.736235 715.464227 677.053662 755.046734 723.597721 766.722658c24.171516 6.058996 43.951001 4.396123 58.276265-5.0449 15.21554-9.995655 17.924231-18.910699 18.529005-25.6461 2.421142-24.684192-24.052812-57.967226-36.555567-70.937632L576.069713 665.094026 576.069713 665.094026zM897.051191 578.800661l0-111.087051c0-13.685697-11.063987-24.810059-24.749684-24.810059L542.261723 442.903551 542.261723 603.630163l330.039785 0C885.982088 603.630163 897.051191 592.481242 897.051191 578.800661M480.854141 381.433548l0-383.02351L206.412628-1.589962c-13.72049 0-24.818245 11.134595-24.818245 24.818245L181.594383 356.585627c0 13.681604 11.097756 24.847921 24.818245 24.847921L480.854141 381.433548 480.854141 381.433548zM222.742549 736.032682c0.605797 6.734378 3.347235 15.650445 18.499329 25.6461 14.229073 9.442046 34.002418 11.18576 58.311057 5.0449 46.283116-11.613502 103.537098-51.196009 147.300834-101.628632L259.235694 665.09505C248.034585 676.437375 220.286614 710.758042 222.742549 736.032682M126.031926 578.800661c0 13.681604 11.098779 24.830525 24.812105 24.830525l330.011132 0 0-160.727635L150.844032 442.903551c-13.713326 0-24.812105 11.125385-24.812105 24.810059L126.031926 578.800661 126.031926 578.800661zM126.031926 578.800661"  horiz-adv-x="1024" />

    
    <glyph glyph-name="qiyeshenfenrz" unicode="&#58971;" d="M959.363 297.465v598.535h-958.872v-894.857l547.504-0.093c44.161-75.658 126.199-126.501 220.121-126.501 140.671 0 254.707 114.037 254.707 254.709 0 64.472-23.966 123.339-63.461 168.208zM913.187 853.62v-166.971l-870.316-0v166.971h870.316zM42.871 46.423v596.255h870.316v-304.056c-41.168 28.58-91.158 45.345-145.071 45.345-140.671 0-254.708-114.037-254.708-254.707 0-29 4.857-56.864 13.785-82.834l-484.322-0.003zM768.116-81.798c-116.653 0-211.556 94.904-211.556 211.556 0 116.652 94.904 211.556 211.556 211.556 70.617 0 133.255-34.786 171.702-88.115l-171.851-175.692-99.175 96.813-32.598-33.271 132.446-129.412 194.736 199.517c10.49-25.069 16.296-52.567 16.296-81.397-0.001-116.652-94.904-211.556-211.556-211.556zM132.365 515.048h43.972v-191.977h-43.972v191.977zM271.884 515.048h43.972v-191.977h-43.972v191.977zM407.847 515.048h43.972v-191.977h-43.972v191.977z"  horiz-adv-x="1024" />

    
    <glyph glyph-name="licaizhuanhuan" unicode="&#58911;" d="M548.430724 442.159608c-0.066515 0.082888-0.534166 0.663102-1.199315 1.482771 24.312732 27.133987 60.529585 64.953338 103.968933 102.07377l-23.880897 27.969005c-43.138496-36.858466-79.193667-74.126254-104.256482-101.863992-23.89727 26.793226-63.09399 68.051909-111.132076 108.461247l-23.695678-28.155247c48.275493-40.618093 87.710644-82.601276 110.391203-108.2484-0.532119-0.63138-1.151219-1.354857-1.653663-1.954515L369.187387 441.924247l0-36.796044 133.573181 0 0-69.830415L369.187387 335.297788l0-36.796044 133.573181 0 0-133.478014 36.796044 0L539.556613 298.500721l127.809921 0 0 36.796044L539.556613 335.296765l0 69.830415 127.809921 0 0 36.796044L548.133965 441.923224 548.430724 442.159608zM518.277984 782.708747c-223.518726 0-404.713508-181.195805-404.713508-404.714532 0-223.471654 181.194782-404.665413 404.713508-404.665413 223.472678 0 404.665413 181.193759 404.665413 404.665413C922.943396 601.511919 741.750661 782.708747 518.277984 782.708747zM518.277984 10.124847c-202.891943 0-367.918487 165.025521-367.918487 367.869369 0 202.891943 165.026544 367.916441 367.918487 367.916441 202.844871 0 367.868345-165.025521 367.868345-367.916441C886.146329 175.149345 721.122855 10.124847 518.277984 10.124847zM518.277984 697.499064l0-18.394952c166.001755 0 301.059753-135.064139 301.059753-301.06487l18.398022 0C837.735759 554.450067 694.685739 697.499064 518.277984 697.499064z"  horiz-adv-x="1024" />

    
    <glyph glyph-name="shenghuo" unicode="&#58949;" d="M858.83871 532.645161l-66.064516 0c0 0-669.233548 0-751.483871 0C35.906065 532.645161 33.032258 532.645161 33.032258 532.645161L0 532.645161l0-297.290323c0-182.437161 147.885419-330.322581 330.322581-330.322581l165.16129 0c182.437161 0 330.322581 147.885419 330.322581 330.322581l33.032258 0c72.968258 0 132.129032 59.160774 132.129032 132.129032l0 33.032258C990.967742 473.484387 931.806968 532.645161 858.83871 532.645161zM792.774194 235.354839c4.129032-152.311742-134.639484-307.596387-330.322581-297.290323l-99.096774 0c-197.665032-6.177032-330.322581 155.284645-330.322581 297.290323l0 264.258065 759.741935 0L792.774194 235.354839zM957.935484 367.483871c0-54.734452-44.362323-99.096774-99.096774-99.096774l-33.032258 0 0 231.225806 33.032258 0c54.734452 0 99.096774-44.362323 99.096774-99.096774L957.935484 367.483871zM198.193548 664.774194c1.651613-40.530581-33.032258-66.064516-33.032258-66.064516l33.032258 0c0 0 33.032258 24.443871 33.032258 66.064516 0 22.594065-4.129032 46.344258-33.032258 80.532645C179.530323 767.339355 165.16129 805.194323 165.16129 829.935484c0 39.473548 33.032258 66.064516 33.032258 66.064516L165.16129 896c0 0-33.032258-23.419871-33.032258-66.064516 0-22.693161 17.275871-62.133677 33.032258-82.580645C187.887484 717.923097 196.145548 715.280516 198.193548 664.774194zM396.387097 664.774194c1.651613-40.530581-33.032258-66.064516-33.032258-66.064516l33.032258 0c0 0 33.032258 24.443871 33.032258 66.064516 0 22.594065-4.129032 46.344258-33.032258 80.532645C377.723871 767.339355 363.354839 805.194323 363.354839 829.935484c0 39.473548 33.032258 66.064516 33.032258 66.064516l-33.032258 0c0 0-33.032258-23.419871-33.032258-66.064516 0-22.693161 17.275871-62.133677 33.032258-82.580645C386.081032 717.923097 394.339097 715.280516 396.387097 664.774194zM594.580645 664.774194c1.651613-40.530581-33.032258-66.064516-33.032258-66.064516l33.032258 0c0 0 33.032258 24.443871 33.032258 66.064516 0 22.594065-4.129032 46.344258-33.032258 80.532645C575.917419 767.339355 561.548387 805.194323 561.548387 829.935484c0 39.473548 33.032258 66.064516 33.032258 66.064516l-33.032258 0c0 0-33.032258-23.419871-33.032258-66.064516 0-22.693161 17.275871-62.133677 33.032258-82.580645C584.274581 717.923097 592.532645 715.280516 594.580645 664.774194z"  horiz-adv-x="1024" />

    
    <glyph glyph-name="shuidianfei" unicode="&#58946;" d="M338.741571 293.717477 492.836271 293.717477C498.765339 293.717477 504.341127 291.060143 508.058355 286.508409 511.821608 281.956621 513.311582 275.981474 512.154408 270.144512L488.627523 152.755847 666.438548 371.599414 512.389928 371.599414C506.450621 371.599414 500.890193 374.256748 497.167899 378.813656 493.414831 383.411523 491.914671 389.381551 493.056431 395.177499L516.521876 512.494484 338.741571 293.717477 338.741571 293.717477ZM445.347301 60.71684C437.139779 64.556948 432.639192 73.49663 434.410765 82.395352L468.776906 254.354109 297.386469 254.354109C289.777987 254.354109 282.87612 258.685736 279.614572 265.546698 276.327478 272.392246 277.305398 280.538328 282.087586 286.467449L536.183053 599.213703C541.892015 606.243624 551.712337 608.455518 559.899432 604.610291 568.071114 600.759997 572.587008 591.779301 570.820608 582.936899L536.398147 411.013982 707.885811 411.013982C715.443092 411.013982 722.396214 406.631155 725.606508 399.775367 728.888482 392.919525 727.915682 384.788803 723.138614 378.900696L468.997066 66.113428C465.156958 61.38756 459.504371 58.837747 453.708423 58.837747 450.887249 58.837747 448.014875 59.4522 445.347301 60.71684L445.347301 60.71684 445.347301 60.71684ZM123.866112 508.546856C164.60676 573.643884 217.825172 637.061551 270.76193 693.213723 376.650806 805.39012 481.510616 888.289765 482.227416 888.909285 494.182831 898.386621 511.012648 898.340541 522.968064 888.909285 524.166198 887.583151 759.225128 702.906099 881.329368 508.546856 921.84991 443.357723 950.978183 376.530082 951.341703 310.275934 951.198343 67.552202 749.845073-127.56992 502.590087-128L502.590087-95.200579 502.590033-79.56577C714.803038-79.51969 900.906685 97.861848 899.355271 310.27588 900.906631 390.697391 831.643432 516.173069 743.38816 615.190797 657.984781 712.344792 543.525295 812.419072 502.590033 846.539453 497.664485 842.433159 289.815768 673.776317 175.460514 488.506584 138.478484 428.591104 107.484429 355.979318 107.486855 310.27588 107.498658 88.664495 290.423107-79.51969 502.590033-79.56577L502.590087-95.200579 502.590087-128C255.437447-127.56992 54.027857 67.541962 53.894737 310.275934 54.201937 376.530082 83.34045 443.357723 123.866112 508.546856Z"  horiz-adv-x="1024" />

    
    <glyph glyph-name="shoujirenzheng" unicode="&#59198;" d="M469.281571 265.781528l-44.699038-44.703131 138.599661-137.962142 208.520127 209.227232-44.705178 44.699038L563.182194 172.518425 469.281571 265.781528zM469.281571 265.781528M684.953585 459.81778c-64.404846 14.534018-132.390239 14.140045-196.619076-1.139963l-137.315412-32.654724 0-255.357875c0-58.168818 31.102369-112.695688 81.169671-142.306076l155.36551-91.88164 162.433486 92.101651c51.674916 29.303396 83.781148 84.410482 83.781148 143.819546L833.768913 426.234917 684.953585 459.81778 684.953585 459.81778zM787.794835 172.397674c0-42.889833-23.176862-82.668815-60.483536-103.827717l-139.26788-78.964446-132.450614 78.329996c-36.142152 21.372773-58.595536 60.739363-58.595536 102.729709L396.997268 389.698792l101.978603 24.252357c57.444317 13.667278 118.256334 14.018272 175.859263 1.020236l112.959701-25.485441L787.794835 172.397674 787.794835 172.397674zM787.794835 172.397674M667.469376 831.978894 235.647463 831.978894c-26.02984 0-47.330982-21.301142-47.330982-47.330982l0-704.719256 0 0 0-59.808154c0-29.55206 24.176632-53.726645 53.726645-53.726645l240.149499 0c-5.365194 3.241834-129.742946 46.300512-150.429081 148.016125l-97.469915 0L234.293629 698.272683l434.531628 0 0-203.930599c8.949836-1.484817 17.862833-3.230578 26.709315-5.226025l19.266809-4.349051L714.801381 784.647913C714.800357 810.677752 693.499216 831.978894 667.469376 831.978894L667.469376 831.978894zM483.470735 762.062522c0-4.737908-3.87833-8.622378-8.622378-8.622378l-86.199221 0c-4.738931 0-8.617261 3.883447-8.617261 8.622378l0 0c0 4.745071 3.87833 8.621355 8.617261 8.621355l86.199221 0C479.592404 770.683876 483.470735 766.807592 483.470735 762.062522L483.470735 762.062522 483.470735 762.062522zM508.469082 751.718943c-6.185886 0-11.20418 5.018294-11.20418 11.20418 0 6.191003 5.018294 11.210319 11.20418 11.210319 6.192026 0 11.210319-5.018294 11.210319-11.210319C519.679401 756.737236 514.660084 751.718943 508.469082 751.718943L508.469082 751.718943zM508.469082 751.718943"  horiz-adv-x="1024" />

    
    <glyph glyph-name="kuozhangongneng" unicode="&#59046;" d="M443.409832 762.661156 190.111872 762.661156c-29.187763 0-53.069683-23.880897-53.069683-53.069683l0-251.121388c0-29.187763 23.880897-53.069683 53.069683-53.069683l253.29796 0c29.187763 0 53.069683 23.880897 53.069683 53.069683L496.479515 709.591473C496.479515 738.779236 472.598618 762.661156 443.409832 762.661156zM441.174931 482.759281c0-13.700023-11.209296-24.909319-24.909319-24.909319L217.256092 457.849962c-13.700023 0-24.909319 11.209296-24.909319 24.909319L192.346773 682.782897c0 13.700023 11.209296 24.909319 24.909319 24.909319l199.010543 0c13.700023 0 24.909319-11.209296 24.909319-24.909319L441.175955 482.759281zM443.409832 375.762385 190.111872 375.762385c-29.187763 0-53.069683-23.880897-53.069683-53.069683l0-251.121388c0-29.187763 23.880897-53.069683 53.069683-53.069683l253.29796 0c29.187763 0 53.069683 23.880897 53.069683 53.069683L496.479515 322.692702C496.479515 351.881488 472.598618 375.762385 443.409832 375.762385zM441.174931 95.861534c0-13.700023-11.209296-24.909319-24.909319-24.909319L217.256092 70.952214c-13.700023 0-24.909319 11.209296-24.909319 24.909319L192.346773 295.884127c0 13.700023 11.209296 24.909319 24.909319 24.909319l199.010543 0c13.700023 0 24.909319-11.209296 24.909319-24.909319L441.175955 95.861534zM874.801956 226.701464 737.693252 363.810169c-15.935947 15.935947-42.013883 15.935947-57.94983 0L541.446659 225.513406c-15.935947-15.935947-15.935947-42.013883 0-57.94983l137.108704-137.108704c15.935947-15.935947 42.013883-15.935947 57.94983 0l138.296763 138.296763C890.738927 184.687582 890.738927 210.765517 874.801956 226.701464zM720.565153 305.32208l96.969519-96.969519c6.641257-6.641257 6.641257-17.509792 0-24.152073l-96.478332-96.478332c-6.641257-6.641257-17.509792-6.641257-24.152073 0l-96.969519 96.969519c-6.641257 6.641257-6.641257 17.509792 0 24.152073l96.478332 96.478332C703.05536 311.963337 713.923896 311.963337 720.565153 305.32208zM575.036685 405.400403l253.29796 0c29.187763 0 53.069683 23.880897 53.069683 53.069683L881.404328 709.591473c0 29.187763-23.880897 53.069683-53.069683 53.069683L575.036685 762.661156c-29.187763 0-53.069683-23.880897-53.069683-53.069683l0-251.121388C521.967002 429.281299 545.847899 405.400403 575.036685 405.400403zM577.270563 682.782897c0 13.700023 11.209296 24.909319 24.909319 24.909319l199.010543 0c13.700023 0 24.909319-11.209296 24.909319-24.909319l0-200.022593c0-13.700023-11.209296-24.909319-24.909319-24.909319L602.179882 457.850985c-13.700023 0-24.909319 11.209296-24.909319 24.909319L577.270563 682.782897z"  horiz-adv-x="1024" />

    
    <glyph glyph-name="shangyibu" unicode="&#58892;" d="M662.77376 639.2832c10.28096 9.91232 10.28096 26.17344 0 36.06528-10.28096 9.91232-26.95168 9.91232-37.21216 0l-313.344-277.87264c-5.44768-5.3248-7.80288-12.45184-7.41376-19.31264-0.38912-7.12704 1.96608-14.21312 7.41376-19.53792l313.344-277.87264c10.24-9.91232 26.95168-9.91232 37.21216 0 10.28096 10.17856 10.28096 26.17344 0 36.06528L368.37376 378.18368 662.77376 639.2832 662.77376 639.2832z"  horiz-adv-x="1024" />

    
    <glyph glyph-name="xiaoyuan" unicode="&#58975;" d="M505.112638 344.081849l-243.160065 79.570243 0-207.093639c254.200516-187.685613 491.200278 6.182816 491.200278 6.182816L753.15285 432.172139 505.112638 344.081849zM901.790122 172.635081c0 35.563984-18.262946 82.712817-42.009789 88.008426L859.780333 542.198022l98.727559 35.107589L504.653173 767.031697 62.320882 560.772053l442.332291-144.56656L840.383564 535.424758l0-275.93861c-21.620413-7.687076-37.709857-53.465702-37.709857-86.851067 0-28.442796 11.763928-52.92949 28.650527-64.247256l-9.251711-68.679196 21.546735 30.883381 8.597819-71.125921 12.923334 68.034513 34.498722-37.069267-23.940249 79.972403C891.184577 122.448052 901.790122 145.698592 901.790122 172.635081z"  horiz-adv-x="1024" />

    
    <glyph glyph-name="zhushou1" unicode="&#58902;" d="M867.347171 676.351418 155.922189 676.351418c-49.113581 0-88.928379-39.813774-88.928379-88.927355l0-533.569248c0-49.113581 39.813774-88.927355 88.928379-88.927355l711.423959 0c49.113581 0 88.927355 39.813774 88.927355 88.927355L956.273503 587.423039C956.274526 636.535597 916.459728 676.351418 867.347171 676.351418L867.347171 676.351418zM911.809825 76.086142c0-36.833907-29.860075-66.696028-66.695005-66.696028l-666.960281 0c-36.83493 0-66.696028 29.861098-66.696028 66.696028L111.458511 565.190689c0 36.833907 29.861098 66.695005 66.696028 66.695005l666.960281 0c36.83493 0 66.695005-29.861098 66.695005-66.695005L911.809825 76.086142 911.809825 76.086142zM622.793362 809.742451 400.473951 809.742451c-49.113581 0-88.927355-39.813774-88.927355-88.927355l0-44.463678 44.463678 0 0 22.23235c0 36.83493 29.861098 66.695005 66.696028 66.695005l177.856757 0c36.833907 0 66.695005-29.860075 66.695005-66.695005l0-22.23235 44.464701-22.23235 0 66.696028C711.721741 769.928676 671.907966 809.742451 622.793362 809.742451L622.793362 809.742451zM578.330708 431.798633l0-44.464701c0-36.83493-29.861098-66.695005-66.696028-66.695005-36.835953 0-66.695005 29.860075-66.695005 66.695005l0 44.464701L400.474974 431.798633l0-44.464701c0-61.391209 49.768497-111.159706 111.159706-111.159706 61.391209 0 111.159706 49.768497 111.159706 111.159706l0 44.464701L578.330708 431.798633 578.330708 431.798633zM111.458511 476.26231 911.810848 476.26231 911.810848 431.798633 111.458511 431.798633 111.458511 476.26231Z"  horiz-adv-x="1024" />

    
    <glyph glyph-name="shangcheng-copy-copy" unicode="&#58894;" d="M857.6 620.8h-98c-44.8 115.2-138.8 198.4-247.6 198.4s-204.8-83.2-249.6-198.4h-96c-25.6 0-44.8-19.2-44.8-44.8v-588.8c0-25.6 19.2-44.8 44.8-44.8h691.2c25.6 0 44.8 12.8 44.8 38.4v588.8c0 25.6-19.2 51.2-44.8 51.2zM358.4 691.2c44.8 51.2 96 83.2 153.6 83.2s108.8-25.6 153.6-76.8c19.2-25.6 30-51.2 42.8-76.8h-394.8c12.8 25.6 25.6 51.2 44.8 70.4zM172.4-5.2v574.8h77.2c0-6.4-6.4-19.2-6.4-25.6-12.8-6.4-25.6-25.6-25.6-44.8 0-32 25.6-51.2 51.2-51.2 32 0 51.2 25.6 51.2 51.2 0 19.2-12.8 38.4-32 44.8 0 6.4 1.8 16.8 6.4 25.6l428.6 0.4c1.6-6.4 6.2-19.6 6.2-26v0c-19.2-6.4-25.6-25.6-25.6-44.8 0-32 25.6-51.2 51.2-51.2 32 0 52.6 25.6 51.2 51.2-1.4 24.8-9.4 40.8-32 44.8 0 6.4-3.6 17.2-4.6 25.6h79.4v-574.8l-676.4-0z"  horiz-adv-x="1024" />

    
    <glyph glyph-name="tongji" unicode="&#58887;" d="M534.75392 895.36l-20.468 0 0-468.719c0-7.685 2.558-12.805 7.676-17.929 5.114-5.119 12.792-7.685 17.912-7.685l483.583 0 0 20.494C1026.01392 687.896 808.53092 895.36 534.75392 895.36L534.75392 895.36zM555.22192 442.01 555.22192 854.376C790.62092 844.132 972.28292 667.403 982.52092 442.01L555.22192 442.01 555.22192 442.01zM486.14292-126.6c271.214 0 493.818 212.59 493.818 476.405l0 20.489L481.02292 370.294 481.02292 854.377l-20.466 0C207.24692 854.376-0.00208 628.986-0.00208 352.365-0.00208 83.428 214.92192-126.6 486.14292-126.6L486.14292-126.6zM437.52492 810.835l0-458.469c0-7.684 2.563-12.805 7.677-17.928 5.118-5.124 12.795-7.687 17.91-7.687l473.35 0c-10.235-227.958-209.807-412.368-450.32-412.368-248.19 0-445.205 192.095-445.205 437.982C40.93792 598.251 217.47992 800.591 437.52492 810.835L437.52492 810.835z"  horiz-adv-x="1025" />

    
    <glyph glyph-name="auth" unicode="&#58932;" d="M959.787 747.093l-44.331 0.725c-1.024 0-100.437 2.048-203.051 41.728-105.301 40.789-173.141 87.552-173.781 88.021l-26.752 18.432-26.624-18.475c-0.64-0.427-68.48-47.232-173.781-87.979-102.528-39.765-201.984-41.728-202.923-41.728l-44.544-0.725v-430.464c0-216.107 291.328-444.629 447.957-444.629 156.757 0 448.043 228.523 448.043 444.629l-0.213 430.464zM321.877 123.52v417.067h-39.765v37.931h159.061v-189.611l200.192 189.611h157.696l-477.184-454.997z"  horiz-adv-x="1024" />

    
    <glyph glyph-name="rili" unicode="&#58983;" d="M871.370811-118.891552l-720.121038 0c-72.312956 0-130.934075 56.785308-130.934075 126.842897L20.315698 705.555553c0 70.061682 58.621119 126.842897 130.934075 126.842897l130.927935 0L282.177708 864.119919c0 17.505699 14.654768 31.702026 32.735565 31.702026 18.074657 0 32.732495-14.196327 32.732495-31.702026L347.645768 832.39845l327.328024 0L674.973792 864.119919c0 17.505699 14.654768 31.702026 32.732495 31.702026s32.732495-14.196327 32.732495-31.702026L740.438783 832.39845l130.931005 0c72.312956 0 130.927935-56.781214 130.927935-126.842897L1002.297722 7.951345C1002.298745-62.107267 943.683766-118.891552 871.370811-118.891552zM936.835801 705.555553c0 35.030841-29.308513 63.423495-65.466014 63.423495L740.439806 768.979048l0-31.705096c0-17.505699-14.654768-31.711236-32.732495-31.711236s-32.732495 14.205537-32.732495 31.711236l0 31.705096L347.645768 768.979048l0-31.705096c0-17.505699-14.657838-31.711236-32.732495-31.711236-18.081821 0-32.735565 14.205537-32.735565 31.711236l0 31.705096L151.249773 768.979048c-36.156478 0-65.466014-28.392654-65.466014-63.423495l0-63.419402 851.052043 0L936.835801 705.555553zM936.835801 578.72289 85.783759 578.72289 85.783759 7.951345c0-35.036981 29.308513-63.429635 65.466014-63.429635l720.121038 0c36.156478 0 65.466014 28.392654 65.466014 63.429635L936.836825 578.72289zM805.901727 7.951345l-65.461921 0c-36.156478 0-65.466014 28.382421-65.466014 63.416332l0 63.419402c0 35.030841 29.308513 63.419402 65.466014 63.419402l65.461921 0c36.156478 0 65.466014-28.389584 65.466014-63.419402l0-63.419402C871.367741 36.333766 842.058205 7.951345 805.901727 7.951345zM805.901727 134.787078l-65.461921 0 0-63.419402 65.461921 0L805.901727 134.787078zM805.901727 261.629975l-65.461921 0c-36.156478 0-65.466014 28.392654-65.466014 63.413262l0 63.423495c0 35.027771 29.308513 63.413262 65.466014 63.413262l65.461921 0c36.156478 0 65.466014-28.385491 65.466014-63.413262l0-63.423495C871.367741 290.022629 842.058205 261.629975 805.901727 261.629975zM805.901727 388.466732l-65.461921 0 0-63.423495 65.461921 0L805.901727 388.466732zM544.039717 7.951345l-65.461921 0c-36.156478 0-65.466014 28.382421-65.466014 63.416332l0 63.419402c0 35.030841 29.308513 63.419402 65.466014 63.419402l65.461921 0c36.156478 0 65.469084-28.389584 65.469084-63.419402l0-63.419402C609.508801 36.333766 580.196195 7.951345 544.039717 7.951345zM544.039717 134.787078l-65.461921 0 0-63.419402 65.461921 0L544.039717 134.787078zM544.039717 261.629975l-65.461921 0c-36.156478 0-65.466014 28.392654-65.466014 63.413262l0 63.423495c0 35.027771 29.308513 63.413262 65.466014 63.413262l65.461921 0c36.156478 0 65.469084-28.385491 65.469084-63.413262l0-63.423495C609.508801 290.022629 580.196195 261.629975 544.039717 261.629975zM544.039717 388.466732l-65.461921 0 0-63.423495 65.461921 0L544.039717 388.466732zM282.176684 7.951345l-65.461921 0c-36.156478 0-65.466014 28.382421-65.466014 63.416332l0 63.419402c0 35.030841 29.308513 63.419402 65.466014 63.419402l65.461921 0c36.156478 0 65.469084-28.389584 65.469084-63.419402l0-63.419402C347.645768 36.333766 318.334185 7.951345 282.176684 7.951345zM282.176684 134.787078l-65.461921 0 0-63.419402 65.461921 0L282.176684 134.787078zM282.176684 261.629975l-65.461921 0c-36.156478 0-65.466014 28.392654-65.466014 63.413262l0 63.423495c0 35.027771 29.308513 63.413262 65.466014 63.413262l65.461921 0c36.156478 0 65.469084-28.385491 65.469084-63.413262l0-63.423495C347.645768 290.022629 318.334185 261.629975 282.176684 261.629975zM282.176684 388.466732l-65.461921 0 0-63.423495 65.461921 0L282.176684 388.466732z"  horiz-adv-x="1024" />

    
    <glyph glyph-name="map" unicode="&#59042;" d="M513.577807-122.488425a24.572224 24.572224 0 0 0-20.193066 10.568544L192.002048 322.64572a24.680756 24.680756 0 0 0-0.937879 1.458012 373.881965 373.881965 0 0 0-34.076952 75.366151c-12.077751 37.311405-18.198538 76.196522-18.198537 115.589486 0 206.664086 168.133233 374.798343 374.798342 374.798343 47.94343 0 96.038396-11.579119 142.947702-34.415857 42.703185-20.788968 83.766106-51.042731 118.751244-87.488954 34.08719-35.511415 62.431408-76.862047 81.96714-119.582638 20.362007-44.524677 31.122018-90.612827 31.120994-133.280177 0-39.402179-6.12181-78.286272-18.194442-115.573104-8.337498-25.72819-19.85928-51.384709-33.324396-74.200969-0.304094-0.516038-0.627642-1.020814-0.968595-1.514327L533.770874-111.917833a24.576319 24.576319 0 0 0-20.193067-10.570592zM232.890908 349.927144l280.683828-404.718319L794.978354 351.050346c11.469563 19.570544 21.298863 41.546195 28.44763 63.607852 10.484586 32.383445 15.802646 66.175756 15.802646 100.430864 0.004096 72.181868-37.153727 153.987233-99.396739 218.828867C674.686163 801.786168 592.223463 840.710192 513.588046 840.710192c-179.564913 0-325.651847-146.086934-325.651847-325.651847 0-34.245892 5.317036-68.039228 15.804694-100.439054a324.581887 324.581887 0 0 1 29.150015-64.692147z m582.802694-12.12485h0.010239-0.010239z m-302.760842-18.642904c-96.8616 0-175.66391 78.803334-175.66391 175.664934s78.80231 175.66391 175.66391 175.663909c96.862623 0 175.66391-78.80231 175.663909-175.663909s-78.801286-175.664934-175.663909-175.664934z m0 302.182348c-69.762427 0-126.517414-56.756011-126.517415-126.517414S443.171357 368.305886 512.93276 368.305886 639.450174 425.061897 639.450174 494.824324s-56.754987 126.517414-126.517414 126.517414z"  horiz-adv-x="1024" />

    
    <glyph glyph-name="account" unicode="&#59043;" d="M944.02227-24.429904C886.277185 134.094165 771.601005 249.265906 635.487737 293.474203c27.283472 13.498904 52.477195 31.503928 74.632025 53.658758 53.344425 53.344425 82.721743 124.267938 82.721743 199.707809 0 75.439871-29.377318 146.364407-82.721743 199.707809s-124.268962 82.721743-199.708833 82.721743-146.364407-29.377318-199.707809-82.721743S227.981378 622.280641 227.981378 546.841794c0-75.439871 29.377318-146.364407 82.721743-199.707809 22.186571-22.186571 47.422273-40.211048 74.75182-53.71712-136.034428-44.252324-250.634841-159.392324-308.354328-317.846769-2.745037-7.533748-1.640264-15.933703 2.958005-22.502952 4.598269-6.568224 12.112563-10.48049 20.131633-10.48049l820.743405 0c8.018046 0 15.53234 3.912266 20.130609 10.48049C945.662534-40.363607 946.766282-31.964676 944.02227-24.429904zM277.127874 546.841794c0 62.311613 24.266082 120.89526 68.326939 164.956117 44.060857 44.061881 102.644504 68.326939 164.956117 68.326939s120.89526-24.266082 164.956117-68.326939c44.061881-44.060857 68.326939-102.644504 68.326939-164.956117 0-62.312637-24.265058-120.89526-68.326939-164.956117-44.060857-44.061881-102.64348-68.326939-164.956117-68.326939-62.311613 0-120.89526 24.265058-164.956117 68.326939C301.393956 425.946534 277.127874 484.529157 277.127874 546.841794zM136.475723-8.26685c33.140096 75.787992 81.511511 140.31734 141.237813 188.041659 69.148095 55.252948 149.665413 84.457229 232.847905 84.457229 83.181468 0 163.698786-29.204281 232.846881-84.457229 59.727327-47.724319 108.098741-112.254691 141.238837-188.041659L136.475723-8.26685z"  horiz-adv-x="1025" />

    
    <glyph glyph-name="time" unicode="&#59063;" d="M512.268258-126.835842c-68.658678 0-135.399619 13.564433-198.369591 40.316509-60.752236 25.809077-115.373446 62.712976-162.346233 109.685763-46.971763 46.971763-83.875662 101.592974-109.685763 162.346233C15.115619 248.482634 1.551186 315.222551 1.551186 383.881229S15.115619 519.280849 41.866671 582.25082c25.810101 60.752236 62.714 115.373446 109.685763 162.346233 46.972787 46.971763 101.593997 83.875662 162.346233 109.685763 62.969971 26.751052 129.710912 40.315485 198.369591 40.315485s135.398595-13.564433 198.368567-40.315485c60.752236-25.810101 115.373446-62.714 162.346233-109.685763 46.971763-46.972787 83.875662-101.593997 109.685763-162.346233 26.752076-62.969971 40.316509-129.710912 40.316509-198.369591s-13.564433-135.398595-40.316509-198.368567c-25.809077-60.75326-62.712976-115.37447-109.685763-162.346233-46.971763-46.972787-101.592974-83.876686-162.346233-109.685763C647.666853-113.27141 580.925912-126.835842 512.268258-126.835842zM512.268258 845.451805c-62.018782 0-122.293887-12.247716-179.152287-36.403219-54.923257-23.333323-104.317532-56.709936-146.810821-99.204249s-75.870926-91.888588-99.204249-146.810821c-24.155503-56.8584-36.403219-117.133505-36.403219-179.152287 0-62.017758 12.247716-122.292863 36.403219-179.152287 23.333323-54.923257 56.709936-104.317532 99.204249-146.811845 42.493289-42.493289 91.888588-75.870926 146.810821-99.204249 56.8584-24.155503 117.133505-36.403219 179.152287-36.403219 62.017758 0 122.292863 12.247716 179.152287 36.403219 54.923257 23.333323 104.317532 56.71096 146.811845 99.204249 42.493289 42.494313 75.870926 91.888588 99.204249 146.811845 24.155503 56.8584 36.403219 117.133505 36.403219 179.152287s-12.247716 122.293887-36.403219 179.152287c-23.334347 54.923257-56.71096 104.317532-99.205273 146.810821-42.493289 42.493289-91.887565 75.870926-146.810821 99.204249C634.561121 833.204089 574.286016 845.451805 512.268258 845.451805zM509.715712 678.2114 509.715712 262.950134 509.715712 678.2114ZM445.416737 426.269058 676.001856 204.616315 445.416737 426.269058ZM693.03214 222.333627 534.289984 374.92428 534.289984 678.2114c0 13.5716-11.001648 24.573248-24.573248 24.573248s-24.573248-11.001648-24.573248-24.573248l0-256.045051-22.69749 21.817972c-9.784248 9.405411-25.341162 9.098245-34.744525-0.686003-9.405411-9.784248-9.098245-25.340138 0.686003-34.744525l56.756011-54.556706 0-91.046955c0-13.5716 11.001648-24.573248 24.573248-24.573248s24.573248 11.001648 24.573248 24.573248l0 43.804886 124.683635-119.852944c4.765162-4.580863 10.900283-6.85696 17.026189-6.85696 6.452525 0 12.894812 2.525925 17.719359 7.543987C703.123554 197.372326 702.815365 212.928216 693.03214 222.333627z"  horiz-adv-x="1025" />

    
    <glyph glyph-name="renminbi1688" unicode="&#59083;" d="M787.669861 833.250164h-65.742653l-210.480106-375.237589L298.62537 833.250164h-65.917737L454.915321 441.463516H224.561601v-49.146496h253.973731v-149.487257H224.561601v-49.146496h253.973731v-257.529684h66.552546V193.683267h257.045387v49.146496H545.087878v149.487257h257.045387v49.146496H567.906187z"  horiz-adv-x="1024" />

    
    <glyph glyph-name="dayin" unicode="&#58962;" d="M787.112266 158.702989C773.636365 158.702989 762.701875 147.79535 762.701875 134.336211L762.701875-63.766112 274.558153-63.766112 274.558153 134.336211C274.558153 147.79535 263.623665 158.702989 250.147763 158.702989 236.671861 158.702989 225.737374 147.79535 225.737374 134.336211L225.737374-88.154154C225.737374-101.61329 236.671861-112.520931 250.147763-112.520931L787.112266-112.520931C800.609523-112.520931 811.522656-101.61329 811.522656-88.154154L811.522656 134.336211C811.544013 147.79535 800.609523 158.702989 787.112266 158.702989ZM909.164214 691.816611 860.343434 691.816611 860.343434 886.814618 176.937951 886.814618 176.937951 691.816611 6.08658 691.816611 6.08658 228.954154C6.08658 161.615946 60.780375 106.865117 128.181241 106.865117L201.34834 106.865117 201.34834 204.353488 835.933043 204.353488 835.933043 106.865117 1031.194806 106.865117 1031.194806 569.727574C1031.194806 637.044518 976.543722 691.816611 909.164214 691.816611ZM225.75873 838.059801 811.544013 838.059801 811.544013 691.816611 225.75873 691.816611 225.75873 838.059801ZM982.374026 155.598672 884.753824 155.598672 884.753824 253.087043 152.527561 253.087043 152.527561 155.598672 128.181241 155.598672C87.753535 155.598672 54.907359 188.491693 54.907359 228.93289L54.907359 643.061794 909.164214 643.061794C949.52785 643.061794 982.374026 610.168771 982.374026 569.706314L982.374026 155.598672ZM170.666667 526.222221C170.666667 541.931654 183.319807 554.666666 198.985316 554.666666L455.236906 554.666666C470.876864 554.666666 483.555555 542.041178 483.555555 526.222221 483.555555 510.51279 470.902416 497.777779 455.236906 497.777779L198.985316 497.777779C183.345358 497.777779 170.666667 510.403267 170.666667 526.222221Z"  horiz-adv-x="1056" />

    
    <glyph glyph-name="daguimojiqixuexijichengsuanfa" unicode="&#58885;" d="M803.267 805.084H220.728c-70.332 0-127.876-57.544-127.876-127.877v-582.538c0-70.332 57.544-127.877 127.876-127.877h582.539c70.33 0 127.88 57.545 127.88 127.877V677.207c0 70.333-57.55 127.877-127.88 127.877zM904.06 113.502c0-65.8-53.826-119.623-119.626-119.623H239.56c-65.798 0-119.622 53.825-119.622 119.623V658.258c0 65.799 53.824 119.624 119.622 119.624h544.873c65.8 0 119.626-53.825 119.626-119.624v-544.756zM207.344 474.673l274.184-124.926c24.235-11.568 34.673-11.568 60.944 0l274.184 124.926c20.196 9.532 20.874 50.087 0 61.654L542.472 683.034c-21.553 12.925-36.708 12.247-60.944 0L207.344 536.327c-20.875-13.604-21.554-50.086 0-61.654zM512 658.152L792.065 505.5 512 385.938 231.935 505.5 512 658.152z m0-545.137L231.935 243.821c0.97-0.58-24.752 11.214-43.074 21.812 0-15.833 3.942-44.787 18.484-52.639L481.53 88.101c24.235-11.601 34.673-11.601 60.944 0l274.184 124.893c13.539 6.398 18.484 36.45 18.484 52.64-17.644-8.92-42.59-21.684-43.075-21.78L512 113.014z m-304.656 230.82L481.528 218.94c24.235-11.6 34.673-11.6 60.944 0l274.184 124.893c13.539 6.398 18.484 36.45 18.484 52.64-17.644-8.92-42.59-21.715-43.075-21.813L512 243.854 231.935 374.66c0.97-0.581-24.752 11.214-43.074 21.812 0-15.833 3.942-44.786 18.483-52.638z"  horiz-adv-x="1024" />

    
    <glyph glyph-name="yiyuanmiaosha" unicode="&#58896;" d="M564.522667 784.497778c-168.163556 0-304.512-136.334222-304.512-304.512 0-51.612444 12.856889-86.912 35.512889-129.507556 52.679111-31.886222 322.261333-135.054222 322.261333-135.054222l181.959111 69.361778c51.228444 54.485333 69.290667 114.531556 69.290667 195.214222 0 168.163556-136.334222 304.497778-304.512 304.497778zM597.333333 374.200889c0-10.951111-10.396444-19.811556-21.333333-19.811556-10.951111 0-21.333333 8.860444-21.333333 19.811556v241.493333l-58.097778-14.208a24.490667 24.490667 0 0 0-5.447111-0.597333c-8.860444 0-17.28 6.016-19.527111 15.018667a19.712 19.712 0 0 0 14.264889 24.021333l70.343111 17.621333c3.541333 0.896 7.04 0.696889 10.325333-0.270222a44.373333 44.373333 0 0 0 8.220444 0.853333c10.936889 0 22.584889-8.860444 22.584889-19.811555v-264.120889zM811.847111 280.021333a21.347556 21.347556 0 0 0-17.066667 34.119111 289.038222 289.038222 0 0 1 57.912889 174.421334c0 160.725333-130.759111 291.498667-291.498666 291.498666-160.711111 0-291.470222-130.759111-291.470223-291.498666 0-39.722667 7.424-86.158222 18.474667-115.555556a21.333333 21.333333 0 1 0-39.936-15.004444c-12.871111 34.261333-21.191111 85.504-21.191111 130.56 0 184.263111 149.902222 334.165333 334.136889 334.165333 184.263111 0 334.165333-149.902222 334.165333-334.165333 0-72.732444-22.968889-141.895111-66.417778-199.978667a21.361778 21.361778 0 0 0-17.109333-8.561778zM999.153778 224.483556c-32.085333 48.696889-124.501333 125.681778-245.034667 68.394666-40.462222-19.569778-85.959111-42.936889-121.841778-61.667555L256.355556 382.464a21.504 21.504 0 0 1-7.964445 1.536H184.888889a21.333333 21.333333 0 1 1 0-42.666667h59.363555l338.531556-136.206222c-8.874667-4.721778-14.321778-7.637333-14.592-7.793778-0.696889-0.369778-69.745778-37.603556-148.707556-14.350222a24.519111 24.519111 0 0 1-2.019555 0.483556l-123.690667 23.623111a21.333333 21.333333 0 1 1-7.992889-41.912889l122.695111-23.424c96.184889-27.832889 177.038222 16.384 180.167112 18.119111 1.009778 0.554667 102.983111 55.381333 183.950222 94.520889 87.424 41.557333 149.518222-6.826667 176.298666-35.441778L559.744 0H199.111111a21.333333 21.333333 0 1 1 0-42.666667h366.222222c3.669333 0 7.267556 0.938667 10.453334 2.730667l416 234.083556a21.390222 21.390222 0 0 1 7.367111 30.336zM42.666667 355.555556h156.444444v-384H42.666667zM206.222222-42.666667h-156.444444A21.333333 21.333333 0 0 0 28.444444-21.333333v384A21.333333 21.333333 0 0 0 49.777778 384h156.444444a21.333333 21.333333 0 0 0 21.333334-21.333333v-384a21.333333 21.333333 0 0 0-21.333334-21.333334zM71.111111 0h113.777778V341.333333H71.111111v-341.333333z"  horiz-adv-x="1024" />

    
    <glyph glyph-name="shouzhiguanli" unicode="&#59211;" d="M555.52-126.08H127.36c-28.16 0-51.2 23.04-51.2 51.2V844.8C76.16 872.96 99.2 896 127.36 896H896c28.16 0 51.2-23.04 51.2-51.2v-597.12c0-10.88-8.32-19.2-19.2-19.2s-19.2 8.32-19.2 19.2V844.8c0 7.04-5.76 12.8-12.8 12.8H127.36c-7.04 0-12.8-5.76-12.8-12.8v-919.68c0-7.04 5.76-12.8 12.8-12.8h428.16c10.88 0 19.2-8.32 19.2-19.2s-8.32-19.2-19.2-19.2z m-227.84 729.6c-5.12 0-10.24 1.92-13.44 5.76L192 733.44c-7.68 7.68-7.04 19.84 0 26.88 7.68 7.68 19.84 7.04 26.88 0l122.24-124.16c7.68-7.68 7.04-19.84 0-26.88-3.84-3.84-8.32-5.76-13.44-5.76z m0 0c-5.12 0-9.6 1.92-13.44 5.76-7.68 7.68-7.68 19.84 0 26.88l122.24 124.16c7.68 7.68 19.84 7.68 26.88 0 7.68-7.68 7.68-19.84 0-26.88L341.12 609.28c-3.2-3.84-8.32-5.76-13.44-5.76z m163.84 0H163.84c-10.88 0-19.2 8.32-19.2 19.2s8.32 19.2 19.2 19.2h327.68c10.88 0 19.2-8.32 19.2-19.2s-8.32-19.2-19.2-19.2z m0-131.2H163.84c-10.88 0-19.2 8.32-19.2 19.2s8.32 19.2 19.2 19.2h327.68c10.88 0 19.2-8.32 19.2-19.2s-8.32-19.2-19.2-19.2z m-163.84-172.8c-10.88 0-19.2 8.32-19.2 19.2v304c0 10.88 8.32 19.2 19.2 19.2s19.2-8.32 19.2-19.2v-304c0-10.24-8.32-19.2-19.2-19.2z m540.8 304H560c-10.88 0-19.2 8.32-19.2 19.2s8.32 19.2 19.2 19.2h308.48c10.88 0 19.2-8.32 19.2-19.2s-8.96-19.2-19.2-19.2zM449.92 47.36h-281.6c-10.88 0-19.2 8.32-19.2 19.2s8.32 19.2 19.2 19.2h282.24c10.88 0 19.2-8.32 19.2-19.2s-8.96-19.2-19.84-19.2z m399.36 75.52H568.96c-10.88 0-19.2 8.32-19.2 19.2s8.32 19.2 19.2 19.2h280.32c10.88 0 19.2-8.32 19.2-19.2s-8.32-19.2-19.2-19.2z m0 0c-4.48 0-8.96 1.28-12.8 4.48l-104.96 91.52c-7.68 7.04-8.96 19.2-1.92 26.88 7.04 7.68 19.2 8.96 26.88 1.92l104.96-91.52c7.68-7.04 8.96-19.2 1.92-26.88-3.84-3.84-8.96-6.4-14.08-6.4z m0-76.8H568.96c-10.88 0-19.2 8.32-19.2 19.2s8.32 19.2 19.2 19.2h280.32c10.88 0 19.2-8.32 19.2-19.2s-8.32-19.2-19.2-19.2z m-174.72-91.52c-4.48 0-8.96 1.28-12.8 4.48L556.8 50.56c-7.68 7.04-8.96 19.2-1.92 26.88 7.04 7.68 19.2 8.96 26.88 1.92l104.96-91.52c7.68-7.04 8.96-19.2 1.92-26.88-3.84-4.48-8.96-6.4-14.08-6.4z m34.56-82.56c-127.36 0-231.04 105.6-231.04 234.88s103.68 234.88 231.04 234.88 231.04-105.6 231.04-234.88S836.48-128 709.12-128z m0 431.36c-106.24 0-192.64-88.32-192.64-196.48s86.4-196.48 192.64-196.48c106.24 0 192.64 88.32 192.64 196.48s-86.4 196.48-192.64 196.48z"  horiz-adv-x="1024" />

    
    <glyph glyph-name="huijieqianicon" unicode="&#58897;" d="M512 886.4C233.6 886.4 9.6 662.4 9.6 384s224-502.4 502.4-502.4 502.4 224 502.4 502.4S787.2 886.4 512 886.4z m0-928c-236.8 0-425.6 192-425.6 425.6S275.2 812.8 512 812.8s425.6-192 425.6-425.6-192-428.8-425.6-428.8zM380.8 611.2c3.2 19.2-3.2 32-16 35.2-16 3.2-25.6-3.2-32-22.4-12.8-73.6-41.6-140.8-89.6-201.6-6.4-12.8-6.4-22.4 3.2-32 9.6-6.4 19.2-6.4 32 3.2 12.8 16 22.4 28.8 32 41.6v-297.6c0-12.8 6.4-19.2 19.2-19.2 12.8 0 19.2 9.6 22.4 19.2V515.2c0 3.2 6.4 19.2 16 54.4 3.2 9.6 6.4 25.6 12.8 41.6zM755.2 457.6h-70.4v70.4h70.4c12.8 0 19.2 6.4 19.2 22.4-3.2 12.8-9.6 19.2-25.6 22.4h-67.2V624c0 12.8-9.6 19.2-25.6 19.2s-22.4-6.4-22.4-19.2v-51.2h-131.2V627.2c0 12.8-9.6 19.2-25.6 19.2s-22.4-9.6-22.4-19.2V576h-64c-12.8 0-19.2-9.6-19.2-22.4 0-16 9.6-22.4 19.2-22.4h64v-70.4h-73.6c-16 0-22.4-9.6-22.4-25.6 3.2-12.8 12.8-19.2 28.8-19.2h361.6c16 0 22.4 6.4 25.6 19.2 3.2 12.8-6.4 22.4-19.2 22.4z m-118.4 0h-131.2v70.4h131.2v-70.4zM691.2 377.6h-230.4c-35.2 0-54.4-16-54.4-48v-147.2c0-32 19.2-48 54.4-48h224c38.4 0 57.6 16 57.6 48V320c0 41.6-16 60.8-51.2 57.6z m3.2-185.6c0-6.4-6.4-9.6-16-9.6h-214.4c-6.4 0-9.6 6.4-9.6 9.6v41.6h240V192z m0 86.4h-240v38.4c0 12.8 6.4 19.2 25.6 19.2h204.8c6.4 0 12.8-9.6 12.8-19.2v-38.4z"  horiz-adv-x="1024" />

    
    <glyph glyph-name="shu" unicode="&#59167;" d="M1020.217 710.303s-57.815 48.037-116.905 73.325c-64.295 30.82-155.16 29.4-155.16 29.4s-64.03 4.727-129.655-26.21c-65.62-30.942-114.055-72.972-114.055-72.972s-66.95 51.155-126.115 77.93-144.53 21.252-144.53 21.252-81.24-4.125-133.515-27.622C48.01 761.915 0 706.055 0 706.055v-720.498s73.9 63.865 117.962 81.825c44.065 17.955 113.002 17.36 113.002 17.36s82.567-9.9 131.777-29.755c49.215-19.865 141.702-93.52 141.702-93.52s58.95 62.83 106.265 86.435c80.24 41.45 159.775 35.425 159.775 35.425s48.88-2.13 116.885-27.63c61.84-23.195 134.095-71.555 134.095-71.555l-1.245 726.163v-0.002zM479.286 40.817s-126.522 100.02-248.322 97.765c-114.772-2.12-158.7-31.17-188.457-60.925 1.067 35.065-0.535 602.214-0.535 602.214s44.107 79.317 192.887 85.695c126.467 10.625 235.572-78.637 242.302-95.642 3.193-22.318 2.125-629.107 2.125-629.107z m494.167 23.375c-29.76 29.76-109.46 74.39-224.229 76.515-121.81 2.26-217.694-100.95-217.694-100.95s-1.06 606.783 2.13 629.098c10.63 17.005 93.525 102.02 242.304 95.642 128.95-5.612 199.154-83.72 199.154-83.72s-1.54-581.8-1.665-616.585z"  horiz-adv-x="1024" />

    
    <glyph glyph-name="shouye" unicode="&#58884;" d="M519.232 832l-455.232-459.648h143.616v-436.352h234.112l-0.96 292.032h145.664v-291.008h230.144v434.24h143.424l-440.768 460.736z"  horiz-adv-x="1024" />

    
    <glyph glyph-name="tuijianhaoyou" unicode="&#58909;" d="M997.74359 262.327795c0 34.343385-11.552821 60.521026-34.238359 75.749743 13.784615 7.929436 34.002051 47.209026 34.002051 81.841231-1.365333 57.238974-55.66359 99.69559-137.557333 99.69559h-217.16677c37.152821 103.345231 30.168615 242.740513-16.489025 317.124923C598.226051 881.506462 564.460308 891.562667 541.092103 891.562667c-78.795487 0-81.394872-77.561436-81.394872-103.922872 0-88.195282-12.498051-128.446359-28.01559-165.52041-12.340513-23.972103-87.801436-102.925128-164.864-102.925129h-144.410256c-55.768615 0-96.229744-47.655385-96.150975-115.528205l37.494154-403.666051c4.489846-62.175179 34.395897-99.826872 94.418051-99.826872 0 0 29.879795-0.236308 52.250257-0.236307 11.421538 0 22.055385 0.078769 28.356923 0.262564 18.510769 0.577641 33.765744 12.681846 47.209026 22.843077 9.504821 7.194256 17.092923 13.390769 23.919589 13.390769 3.098256 0 20.585026-10.24 42.089026-19.561026 21.924103-9.531077 56.713846-17.329231 89.980718-17.329231H744.106667c101.270974 0 149.845333 38.728205 149.897846 103.345231 0 19.062154-4.332308 30.404923-14.729846 45.213539 40.697436 9.977436 76.721231 36.050051 76.72123 81.079794 0 16.672821-7.693128 43.533128-18.221948 50.648616 19.849846 5.198769 60.022154 41.380103 59.969641 82.497641zM237.305436-59.155692c-18.116923-0.577641-83.022769 0-83.442872 0-23.236923 0-43.900718 22.396718-49.152 52.51282L67.21641 412.934564c0 31.402667 24.733538 65.824821 57.764103 65.824821v-0.210052l141.837128-0.420102c2.441846 0 4.831179 0.288821 7.246769 0.393846v-513.312821c-6.564103-4.699897-12.708103-9.216-17.066666-12.498051-6.038974-4.516103-16.068923-11.447795-19.692308-11.867897zM899.649641 207.294359h-5.435077l0.498872-37.467897c4.384821-1.68041 20.637538-6.695385 20.690051-39.227077-0.052513-34.894769-44.898462-48.915692-82.707692-48.889436h0.131282l-0.65641-35.708718c15.333744-3.518359 20.926359-17.224205 20.900102-39.174564 0-38.386872-30.588718-66.008615-109.909333-66.008616H430.342564c-14.966154 0-45.371077 8.900923-62.884102 17.539282-16.541538 8.139487-42.902974 23.341949-52.092718 28.461949V485.349744c78.664205 22.265436 143.543795 91.529846 159.901538 123.510153 17.854359 42.35159 26.781538 86.567385 26.781539 183.584821 0 48.233026 17.381744 54.692103 35.813743 54.692103 16.331487 0 42.272821-18.379487 55.374769-39.332103 38.833231-61.886359 47.944205-195.268923-0.367589-295.122051l-8.323282-34.579693 277.267692 0.07877c47.209026-2.651897 94.680615-22.344205 94.680615-57.921641l-0.341333-11.132718c0.078769-0.446359-1.207795-30.825026-16.987898-44.215795-13.233231-11.237744-23.998359-11.63159-23.998359-11.63159l-0.28882-36.864s16.01641-2.205538 24.339692-8.060718c12.603077-8.822154 18.248205-25.494974 17.618052-43.716923-0.813949-23.053128-35.708718-57.291487-57.186462-57.291487z"  horiz-adv-x="1024" />

    
    <glyph glyph-name="xueli" unicode="&#58886;" d="M972.8 605.696c0 8.192-4.608 15.36-11.776 18.432l-440.32 207.36c-5.632 2.56-11.776 2.56-17.408 0l-440.32-207.36c-7.168-3.584-11.776-10.752-11.776-18.432s4.608-15.36 11.776-18.432l96.768-45.568v-323.584c0-2.56 0-5.632 1.024-8.192 3.072-8.704 10.752-13.824 19.456-13.824 2.048 0 4.096 0.512 6.656 1.024l19.968 6.144c14.336-150.016 145.92-268.288 305.152-268.288 159.744 0 290.816 118.272 305.152 268.288l19.968-6.144c10.752-3.584 22.528 2.048 26.112 12.8 1.024 2.56 1.024 5.12 1.024 8.192V541.696l58.88 27.648v-301.568c0-11.264 9.216-20.48 20.48-20.48s20.48 9.216 20.48 20.48V588.8c5.632 4.096 8.704 10.24 8.704 16.896z m-460.8-629.76c-140.8 0-256.512 105.472-264.704 238.592 81.408 20.48 171.52 31.232 265.216 31.232 93.696 0 183.808-10.752 264.704-31.232-8.704-133.12-124.416-238.592-265.216-238.592z m311.296 268.288c-5.632 1.536-11.776 3.584-17.408 5.12-1.536 0.512-3.072 1.024-4.608 1.024-88.064 23.552-186.88 35.84-288.768 35.84-102.4 0-200.704-12.288-288.768-35.84-1.536 0-3.584-0.512-5.12-1.536-5.632-1.536-11.776-3.072-17.408-5.12V522.24l302.592-142.336c2.56-1.536 5.632-2.048 8.704-2.048s6.144 0.512 8.704 2.048l302.08 142.336v-278.016zM512 420.864l-392.192 184.32 392.192 184.32 392.192-184.32-392.192-184.32z"  horiz-adv-x="1024" />

    
    <glyph glyph-name="gongzuojingyan" unicode="&#59292;" d="M864-64h-704A160.192 160.192 0 0 0 0 96v448C0 632.192 71.808 704 160 704h704C952.256 704 1024 632.192 1024 544v-448c0-88.256-71.744-160-160-160zM160 640C107.072 640 64 596.928 64 544v-448c0-52.928 43.072-96 96-96h704c52.928 0 96 43.072 96 96v448c0 52.928-43.072 96-96 96h-704zM672 672h-64V768.256L416 768v-96h-64V768.256A64 64 0 0 0 416 832h192c35.328 0 64-28.608 64-63.744V672zM512 317.376a32 32 0 0 0-32 32v59.52a32 32 0 0 0 64 0v-59.52a32 32 0 0 0-32-32zM512 396.032c-160.384 0-315.968 18.432-462.4 54.72a32 32 0 1 0 15.36 62.08c282.88-70.144 611.2-70.144 894.08 0a32 32 0 1 0 15.36-62.08c-146.432-36.352-302.016-54.72-462.4-54.72z"  horiz-adv-x="1024" />

    
    <glyph glyph-name="wendang" unicode="&#58927;" d="M928 640h-832c-53.019 0-96-42.981-96-96v-576c0-53.019 42.981-96 96-96h832c53.019 0 96 42.981 96 96v576c0 53.019-42.981 96-96 96zM960 0c0-35.346-28.654-64-64-64h-768c-35.346 0-64 28.654-64 64v512c0 35.346 28.654 64 64 64h768c35.346 0 64-28.654 64-64v-512zM160 704h704c17.673 0 32 14.327 32 32s-14.327 32-32 32h-704c-17.673 0-32-14.327-32-32s14.327-32 32-32zM256 832h512c17.673 0 32 14.327 32 32s-14.327 32-32 32h-512c-17.673 0-32-14.327-32-32s14.327-32 32-32z"  horiz-adv-x="1024" />

    
    <glyph glyph-name="cidan" unicode="&#59186;" d="M891.392 723.456H172.544l17.408 44.032c6.144 14.848 20.48 25.088 36.864 25.088h673.792c16.384 0 30.208 12.288 30.72 28.672 0.512 16.896-12.8 30.72-29.696 30.72H196.096c-25.6 0-49.152-15.872-58.368-39.936L118.272 762.88c-10.24-26.112-15.36-53.76-15.36-81.408v-741.376c0-28.16 23.04-51.2 51.2-51.2h725.504c28.16 0 51.2 23.04 51.2 51.2V684.032c0 21.504-17.408 39.424-39.424 39.424z m-55.808-764.928H198.144c-14.336 0-25.6 11.264-25.6 25.6V653.312h655.872c17.92 0 32.768-14.848 32.768-32.768v-636.928c0-13.824-11.264-25.088-25.6-25.088zM633.856 148.992l76.288 0.512-148.992 348.672H483.84l0.512-1.024-159.744-347.648 76.288-0.512 38.912 84.992h157.184l36.864-84.992z m-161.792 154.624l49.152 107.52 46.08-107.52H472.064z"  horiz-adv-x="1024" />

    
    <glyph glyph-name="wode1" unicode="&#58922;" d="M513.141 380.89c114.169 0 206.641 92.472 206.641 206.641S627.31 794.172 513.141 794.172 306.499 701.7 306.499 587.531 398.971 380.89 513.141 380.89z m0-103.32c-137.933 0-413.282-69.225-413.282-206.641v-103.32h826.564v103.32c-0.001 137.416-275.35 206.641-413.282 206.641z"  horiz-adv-x="1024" />

    


  </font>
</defs>
</svg>
